<mxfile host="app.diagrams.net" modified="2022-10-30T17:49:50.013Z" agent="5.0 (Windows NT 10.0; Win64; x64) AppleWebKit/537.36 (KHTML, like Gecko) Chrome/106.0.0.0 Safari/537.36" etag="LIAHJVY5f5-FVtYfAn2O" version="20.5.1" type="github" pages="3">
  <diagram id="C5RBs43oDa-KdzZeNtuy" name="Common">
    <mxGraphModel dx="3961" dy="2367" grid="1" gridSize="10" guides="1" tooltips="1" connect="1" arrows="1" fold="1" page="1" pageScale="1" pageWidth="827" pageHeight="1169" math="0" shadow="0">
      <root>
        <mxCell id="WIyWlLk6GJQsqaUBKTNV-0" />
        <mxCell id="WIyWlLk6GJQsqaUBKTNV-1" parent="WIyWlLk6GJQsqaUBKTNV-0" />
        <mxCell id="WIyWlLk6GJQsqaUBKTNV-2" value="" style="rounded=0;html=1;jettySize=auto;orthogonalLoop=1;fontSize=11;endArrow=block;endFill=0;endSize=8;strokeWidth=1;shadow=0;labelBackgroundColor=none;edgeStyle=orthogonalEdgeStyle;" parent="WIyWlLk6GJQsqaUBKTNV-1" source="WIyWlLk6GJQsqaUBKTNV-3" edge="1">
          <mxGeometry relative="1" as="geometry">
            <mxPoint x="1658" y="-580" as="targetPoint" />
          </mxGeometry>
        </mxCell>
        <mxCell id="WIyWlLk6GJQsqaUBKTNV-3" value="Pretende montar um computador&lt;br&gt;" style="rounded=1;whiteSpace=wrap;html=1;fontSize=12;glass=0;strokeWidth=1;shadow=0;" parent="WIyWlLk6GJQsqaUBKTNV-1" vertex="1">
          <mxGeometry x="1598" y="-720" width="120" height="40" as="geometry" />
        </mxCell>
        <mxCell id="u-Qdk7PA7i_6lC7Le9-R-16" style="edgeStyle=orthogonalEdgeStyle;rounded=0;orthogonalLoop=1;jettySize=auto;html=1;entryX=0.5;entryY=0;entryDx=0;entryDy=0;" parent="WIyWlLk6GJQsqaUBKTNV-1" source="WIyWlLk6GJQsqaUBKTNV-6" target="u-Qdk7PA7i_6lC7Le9-R-1" edge="1">
          <mxGeometry relative="1" as="geometry">
            <mxPoint x="120" y="370" as="targetPoint" />
          </mxGeometry>
        </mxCell>
        <mxCell id="u-Qdk7PA7i_6lC7Le9-R-28" style="edgeStyle=orthogonalEdgeStyle;rounded=0;orthogonalLoop=1;jettySize=auto;html=1;entryX=0.5;entryY=0;entryDx=0;entryDy=0;" parent="WIyWlLk6GJQsqaUBKTNV-1" source="WIyWlLk6GJQsqaUBKTNV-6" target="u-Qdk7PA7i_6lC7Le9-R-29" edge="1">
          <mxGeometry relative="1" as="geometry">
            <mxPoint y="390" as="targetPoint" />
          </mxGeometry>
        </mxCell>
        <mxCell id="u-Qdk7PA7i_6lC7Le9-R-41" style="edgeStyle=orthogonalEdgeStyle;rounded=0;orthogonalLoop=1;jettySize=auto;html=1;entryX=0.5;entryY=0;entryDx=0;entryDy=0;" parent="WIyWlLk6GJQsqaUBKTNV-1" source="WIyWlLk6GJQsqaUBKTNV-6" target="u-Qdk7PA7i_6lC7Le9-R-50" edge="1">
          <mxGeometry relative="1" as="geometry">
            <mxPoint x="810" y="440" as="targetPoint" />
          </mxGeometry>
        </mxCell>
        <mxCell id="6vRDBdTw8ivvEX-BXhWZ-164" style="edgeStyle=orthogonalEdgeStyle;rounded=0;orthogonalLoop=1;jettySize=auto;html=1;entryX=0.5;entryY=0;entryDx=0;entryDy=0;" edge="1" parent="WIyWlLk6GJQsqaUBKTNV-1" source="WIyWlLk6GJQsqaUBKTNV-6" target="6vRDBdTw8ivvEX-BXhWZ-163">
          <mxGeometry relative="1" as="geometry" />
        </mxCell>
        <mxCell id="6vRDBdTw8ivvEX-BXhWZ-173" style="edgeStyle=orthogonalEdgeStyle;rounded=0;orthogonalLoop=1;jettySize=auto;html=1;entryX=0.5;entryY=0;entryDx=0;entryDy=0;" edge="1" parent="WIyWlLk6GJQsqaUBKTNV-1" source="WIyWlLk6GJQsqaUBKTNV-6" target="6vRDBdTw8ivvEX-BXhWZ-165">
          <mxGeometry relative="1" as="geometry" />
        </mxCell>
        <mxCell id="6vRDBdTw8ivvEX-BXhWZ-174" style="edgeStyle=orthogonalEdgeStyle;rounded=0;orthogonalLoop=1;jettySize=auto;html=1;entryX=0.5;entryY=0;entryDx=0;entryDy=0;" edge="1" parent="WIyWlLk6GJQsqaUBKTNV-1" source="WIyWlLk6GJQsqaUBKTNV-6" target="6vRDBdTw8ivvEX-BXhWZ-166">
          <mxGeometry relative="1" as="geometry" />
        </mxCell>
        <mxCell id="6vRDBdTw8ivvEX-BXhWZ-175" style="edgeStyle=orthogonalEdgeStyle;rounded=0;orthogonalLoop=1;jettySize=auto;html=1;" edge="1" parent="WIyWlLk6GJQsqaUBKTNV-1" source="WIyWlLk6GJQsqaUBKTNV-6" target="6vRDBdTw8ivvEX-BXhWZ-167">
          <mxGeometry relative="1" as="geometry" />
        </mxCell>
        <mxCell id="6vRDBdTw8ivvEX-BXhWZ-179" style="edgeStyle=orthogonalEdgeStyle;rounded=0;orthogonalLoop=1;jettySize=auto;html=1;entryX=0.5;entryY=0;entryDx=0;entryDy=0;" edge="1" parent="WIyWlLk6GJQsqaUBKTNV-1" source="WIyWlLk6GJQsqaUBKTNV-6" target="6vRDBdTw8ivvEX-BXhWZ-168">
          <mxGeometry relative="1" as="geometry" />
        </mxCell>
        <mxCell id="6vRDBdTw8ivvEX-BXhWZ-181" style="edgeStyle=orthogonalEdgeStyle;rounded=0;orthogonalLoop=1;jettySize=auto;html=1;entryX=0.5;entryY=0;entryDx=0;entryDy=0;" edge="1" parent="WIyWlLk6GJQsqaUBKTNV-1" source="WIyWlLk6GJQsqaUBKTNV-6" target="6vRDBdTw8ivvEX-BXhWZ-169">
          <mxGeometry relative="1" as="geometry" />
        </mxCell>
        <mxCell id="WIyWlLk6GJQsqaUBKTNV-6" value="Qual a funcionalidade que pretende dar ao computador?" style="rhombus;whiteSpace=wrap;html=1;shadow=0;fontFamily=Helvetica;fontSize=12;align=center;strokeWidth=1;spacing=6;spacingTop=-4;fillColor=#ffe6cc;strokeColor=#d79b00;" parent="WIyWlLk6GJQsqaUBKTNV-1" vertex="1">
          <mxGeometry x="1565" width="190" height="160" as="geometry" />
        </mxCell>
        <mxCell id="u-Qdk7PA7i_6lC7Le9-R-0" style="edgeStyle=orthogonalEdgeStyle;rounded=0;orthogonalLoop=1;jettySize=auto;html=1;" parent="WIyWlLk6GJQsqaUBKTNV-1" source="u-Qdk7PA7i_6lC7Le9-R-1" target="u-Qdk7PA7i_6lC7Le9-R-6" edge="1">
          <mxGeometry relative="1" as="geometry">
            <Array as="points" />
          </mxGeometry>
        </mxCell>
        <mxCell id="u-Qdk7PA7i_6lC7Le9-R-1" value="Navegação web" style="rounded=1;whiteSpace=wrap;html=1;" parent="WIyWlLk6GJQsqaUBKTNV-1" vertex="1">
          <mxGeometry x="-820" y="340" width="120" height="60" as="geometry" />
        </mxCell>
        <mxCell id="u-Qdk7PA7i_6lC7Le9-R-2" style="edgeStyle=orthogonalEdgeStyle;rounded=0;orthogonalLoop=1;jettySize=auto;html=1;" parent="WIyWlLk6GJQsqaUBKTNV-1" source="u-Qdk7PA7i_6lC7Le9-R-6" edge="1">
          <mxGeometry relative="1" as="geometry">
            <mxPoint x="-1020" y="675" as="targetPoint" />
          </mxGeometry>
        </mxCell>
        <mxCell id="u-Qdk7PA7i_6lC7Le9-R-3" value="simples= poucas janelas" style="edgeLabel;html=1;align=center;verticalAlign=middle;resizable=0;points=[];" parent="u-Qdk7PA7i_6lC7Le9-R-2" vertex="1" connectable="0">
          <mxGeometry x="0.2034" y="-2" relative="1" as="geometry">
            <mxPoint y="17" as="offset" />
          </mxGeometry>
        </mxCell>
        <mxCell id="u-Qdk7PA7i_6lC7Le9-R-4" style="edgeStyle=orthogonalEdgeStyle;rounded=0;orthogonalLoop=1;jettySize=auto;html=1;" parent="WIyWlLk6GJQsqaUBKTNV-1" source="u-Qdk7PA7i_6lC7Le9-R-6" edge="1">
          <mxGeometry relative="1" as="geometry">
            <mxPoint x="-480" y="675" as="targetPoint" />
          </mxGeometry>
        </mxCell>
        <mxCell id="u-Qdk7PA7i_6lC7Le9-R-5" value="complexo=múltiplas janelas" style="edgeLabel;html=1;align=center;verticalAlign=middle;resizable=0;points=[];" parent="u-Qdk7PA7i_6lC7Le9-R-4" vertex="1" connectable="0">
          <mxGeometry x="-0.1264" y="-1" relative="1" as="geometry">
            <mxPoint x="60" y="34" as="offset" />
          </mxGeometry>
        </mxCell>
        <mxCell id="u-Qdk7PA7i_6lC7Le9-R-6" value="Prentende ter uma utiliação com muitas ou poucas janelas?" style="rhombus;whiteSpace=wrap;html=1;fillColor=#ffe6cc;strokeColor=#d79b00;" parent="WIyWlLk6GJQsqaUBKTNV-1" vertex="1">
          <mxGeometry x="-856.87" y="470" width="193.75" height="200" as="geometry" />
        </mxCell>
        <mxCell id="u-Qdk7PA7i_6lC7Le9-R-8" value="" style="rounded=1;whiteSpace=wrap;html=1;fillColor=#d5e8d4;strokeColor=#82b366;" parent="WIyWlLk6GJQsqaUBKTNV-1" vertex="1">
          <mxGeometry x="-1080" y="675" width="120" height="60" as="geometry" />
        </mxCell>
        <mxCell id="u-Qdk7PA7i_6lC7Le9-R-11" style="edgeStyle=orthogonalEdgeStyle;rounded=0;orthogonalLoop=1;jettySize=auto;html=1;" parent="WIyWlLk6GJQsqaUBKTNV-1" source="u-Qdk7PA7i_6lC7Le9-R-15" edge="1">
          <mxGeometry relative="1" as="geometry">
            <mxPoint x="1051" y="1610" as="targetPoint" />
          </mxGeometry>
        </mxCell>
        <mxCell id="u-Qdk7PA7i_6lC7Le9-R-12" value="baixo (2 a 4h)" style="edgeLabel;html=1;align=center;verticalAlign=middle;resizable=0;points=[];" parent="u-Qdk7PA7i_6lC7Le9-R-11" vertex="1" connectable="0">
          <mxGeometry x="0.2684" y="-1" relative="1" as="geometry">
            <mxPoint x="150" as="offset" />
          </mxGeometry>
        </mxCell>
        <mxCell id="u-Qdk7PA7i_6lC7Le9-R-13" style="edgeStyle=orthogonalEdgeStyle;rounded=0;orthogonalLoop=1;jettySize=auto;html=1;entryX=0.5;entryY=0;entryDx=0;entryDy=0;" parent="WIyWlLk6GJQsqaUBKTNV-1" source="u-Qdk7PA7i_6lC7Le9-R-15" target="u-Qdk7PA7i_6lC7Le9-R-18" edge="1">
          <mxGeometry relative="1" as="geometry">
            <mxPoint x="1691" y="1600" as="targetPoint" />
            <Array as="points">
              <mxPoint x="1690" y="1460" />
            </Array>
          </mxGeometry>
        </mxCell>
        <mxCell id="u-Qdk7PA7i_6lC7Le9-R-14" value="normal(4h+)" style="edgeLabel;html=1;align=center;verticalAlign=middle;resizable=0;points=[];" parent="u-Qdk7PA7i_6lC7Le9-R-13" vertex="1" connectable="0">
          <mxGeometry x="-0.1812" relative="1" as="geometry">
            <mxPoint x="39" y="15" as="offset" />
          </mxGeometry>
        </mxCell>
        <mxCell id="u-Qdk7PA7i_6lC7Le9-R-15" value="Qual o tempo de duração?" style="rhombus;whiteSpace=wrap;html=1;fillColor=#ffe6cc;strokeColor=#d79b00;" parent="WIyWlLk6GJQsqaUBKTNV-1" vertex="1">
          <mxGeometry x="1280" y="1400" width="187.5" height="130" as="geometry" />
        </mxCell>
        <mxCell id="u-Qdk7PA7i_6lC7Le9-R-17" value="" style="rounded=1;whiteSpace=wrap;html=1;fillColor=#d5e8d4;strokeColor=#82b366;" parent="WIyWlLk6GJQsqaUBKTNV-1" vertex="1">
          <mxGeometry x="1000" y="1610" width="120" height="60" as="geometry" />
        </mxCell>
        <mxCell id="u-Qdk7PA7i_6lC7Le9-R-18" value="" style="rounded=1;whiteSpace=wrap;html=1;fillColor=#d5e8d4;strokeColor=#82b366;" parent="WIyWlLk6GJQsqaUBKTNV-1" vertex="1">
          <mxGeometry x="1630" y="1610" width="120" height="60" as="geometry" />
        </mxCell>
        <mxCell id="u-Qdk7PA7i_6lC7Le9-R-21" style="edgeStyle=orthogonalEdgeStyle;rounded=0;orthogonalLoop=1;jettySize=auto;html=1;" parent="WIyWlLk6GJQsqaUBKTNV-1" source="u-Qdk7PA7i_6lC7Le9-R-23" edge="1">
          <mxGeometry relative="1" as="geometry">
            <mxPoint x="1390" y="2570" as="targetPoint" />
            <Array as="points">
              <mxPoint x="1390" y="2426" />
            </Array>
          </mxGeometry>
        </mxCell>
        <mxCell id="u-Qdk7PA7i_6lC7Le9-R-22" value="16gb" style="edgeLabel;html=1;align=center;verticalAlign=middle;resizable=0;points=[];" parent="u-Qdk7PA7i_6lC7Le9-R-21" vertex="1" connectable="0">
          <mxGeometry x="-0.1812" relative="1" as="geometry">
            <mxPoint y="23" as="offset" />
          </mxGeometry>
        </mxCell>
        <mxCell id="u-Qdk7PA7i_6lC7Le9-R-66" style="edgeStyle=orthogonalEdgeStyle;rounded=0;orthogonalLoop=1;jettySize=auto;html=1;entryX=0.5;entryY=0;entryDx=0;entryDy=0;" parent="WIyWlLk6GJQsqaUBKTNV-1" source="u-Qdk7PA7i_6lC7Le9-R-23" target="u-Qdk7PA7i_6lC7Le9-R-67" edge="1">
          <mxGeometry relative="1" as="geometry">
            <mxPoint x="1670" y="2550" as="targetPoint" />
            <Array as="points">
              <mxPoint x="1665" y="2426" />
            </Array>
          </mxGeometry>
        </mxCell>
        <mxCell id="u-Qdk7PA7i_6lC7Le9-R-68" value="24gb" style="edgeLabel;html=1;align=center;verticalAlign=middle;resizable=0;points=[];" parent="u-Qdk7PA7i_6lC7Le9-R-66" vertex="1" connectable="0">
          <mxGeometry x="-0.3826" y="1" relative="1" as="geometry">
            <mxPoint x="-11" y="26" as="offset" />
          </mxGeometry>
        </mxCell>
        <mxCell id="6vRDBdTw8ivvEX-BXhWZ-184" style="edgeStyle=orthogonalEdgeStyle;rounded=0;orthogonalLoop=1;jettySize=auto;html=1;" edge="1" parent="WIyWlLk6GJQsqaUBKTNV-1" source="u-Qdk7PA7i_6lC7Le9-R-23" target="6vRDBdTw8ivvEX-BXhWZ-183">
          <mxGeometry relative="1" as="geometry" />
        </mxCell>
        <mxCell id="6vRDBdTw8ivvEX-BXhWZ-185" value="32gb" style="edgeLabel;html=1;align=center;verticalAlign=middle;resizable=0;points=[];" vertex="1" connectable="0" parent="6vRDBdTw8ivvEX-BXhWZ-184">
          <mxGeometry x="0.4908" y="-2" relative="1" as="geometry">
            <mxPoint as="offset" />
          </mxGeometry>
        </mxCell>
        <mxCell id="6vRDBdTw8ivvEX-BXhWZ-187" style="edgeStyle=orthogonalEdgeStyle;rounded=0;orthogonalLoop=1;jettySize=auto;html=1;entryX=0.5;entryY=0;entryDx=0;entryDy=0;" edge="1" parent="WIyWlLk6GJQsqaUBKTNV-1" source="u-Qdk7PA7i_6lC7Le9-R-23" target="6vRDBdTw8ivvEX-BXhWZ-186">
          <mxGeometry relative="1" as="geometry" />
        </mxCell>
        <mxCell id="6vRDBdTw8ivvEX-BXhWZ-188" value="1Tb+" style="edgeLabel;html=1;align=center;verticalAlign=middle;resizable=0;points=[];" vertex="1" connectable="0" parent="6vRDBdTw8ivvEX-BXhWZ-187">
          <mxGeometry x="0.6234" y="-2" relative="1" as="geometry">
            <mxPoint x="12" y="16" as="offset" />
          </mxGeometry>
        </mxCell>
        <mxCell id="u-Qdk7PA7i_6lC7Le9-R-23" value="Qual é o mínimo de RAM que pretende?" style="rhombus;whiteSpace=wrap;html=1;fillColor=#ffe6cc;strokeColor=#d79b00;" parent="WIyWlLk6GJQsqaUBKTNV-1" vertex="1">
          <mxGeometry x="1570.75" y="2360" width="187.5" height="130" as="geometry" />
        </mxCell>
        <mxCell id="u-Qdk7PA7i_6lC7Le9-R-25" value="" style="rounded=1;whiteSpace=wrap;html=1;fillColor=#d5e8d4;strokeColor=#82b366;" parent="WIyWlLk6GJQsqaUBKTNV-1" vertex="1">
          <mxGeometry x="1345" y="2569" width="120" height="60" as="geometry" />
        </mxCell>
        <mxCell id="u-Qdk7PA7i_6lC7Le9-R-26" style="edgeStyle=orthogonalEdgeStyle;rounded=0;orthogonalLoop=1;jettySize=auto;html=1;entryX=0.477;entryY=0.002;entryDx=0;entryDy=0;entryPerimeter=0;" parent="WIyWlLk6GJQsqaUBKTNV-1" source="u-Qdk7PA7i_6lC7Le9-R-17" target="119" edge="1">
          <mxGeometry relative="1" as="geometry">
            <mxPoint x="1220" y="1710" as="targetPoint" />
            <mxPoint x="1190" y="1641" as="sourcePoint" />
            <Array as="points">
              <mxPoint x="1230" y="1640" />
              <mxPoint x="1230" y="1710" />
            </Array>
          </mxGeometry>
        </mxCell>
        <mxCell id="u-Qdk7PA7i_6lC7Le9-R-27" style="edgeStyle=orthogonalEdgeStyle;rounded=0;orthogonalLoop=1;jettySize=auto;html=1;" parent="WIyWlLk6GJQsqaUBKTNV-1" source="u-Qdk7PA7i_6lC7Le9-R-18" edge="1">
          <mxGeometry relative="1" as="geometry">
            <mxPoint x="1230" y="1710" as="targetPoint" />
            <mxPoint x="1600" y="1641" as="sourcePoint" />
            <Array as="points">
              <mxPoint x="1230" y="1640" />
            </Array>
          </mxGeometry>
        </mxCell>
        <mxCell id="u-Qdk7PA7i_6lC7Le9-R-32" style="edgeStyle=orthogonalEdgeStyle;rounded=0;orthogonalLoop=1;jettySize=auto;html=1;entryX=0.5;entryY=0;entryDx=0;entryDy=0;" parent="WIyWlLk6GJQsqaUBKTNV-1" source="u-Qdk7PA7i_6lC7Le9-R-29" target="u-Qdk7PA7i_6lC7Le9-R-34" edge="1">
          <mxGeometry relative="1" as="geometry">
            <mxPoint y="610" as="targetPoint" />
          </mxGeometry>
        </mxCell>
        <mxCell id="u-Qdk7PA7i_6lC7Le9-R-29" value="Aplicações Office" style="rounded=1;whiteSpace=wrap;html=1;" parent="WIyWlLk6GJQsqaUBKTNV-1" vertex="1">
          <mxGeometry x="-60" y="340" width="120" height="60" as="geometry" />
        </mxCell>
        <mxCell id="u-Qdk7PA7i_6lC7Le9-R-10" value="" style="rounded=1;whiteSpace=wrap;html=1;fillColor=#d5e8d4;strokeColor=#82b366;" parent="WIyWlLk6GJQsqaUBKTNV-1" vertex="1">
          <mxGeometry x="-540" y="675" width="120" height="60" as="geometry" />
        </mxCell>
        <mxCell id="u-Qdk7PA7i_6lC7Le9-R-35" style="edgeStyle=orthogonalEdgeStyle;rounded=0;orthogonalLoop=1;jettySize=auto;html=1;entryX=0.5;entryY=0;entryDx=0;entryDy=0;" parent="WIyWlLk6GJQsqaUBKTNV-1" source="u-Qdk7PA7i_6lC7Le9-R-34" target="u-Qdk7PA7i_6lC7Le9-R-39" edge="1">
          <mxGeometry relative="1" as="geometry">
            <mxPoint x="-200" y="700" as="targetPoint" />
          </mxGeometry>
        </mxCell>
        <mxCell id="u-Qdk7PA7i_6lC7Le9-R-37" value="básico" style="edgeLabel;html=1;align=center;verticalAlign=middle;resizable=0;points=[];" parent="u-Qdk7PA7i_6lC7Le9-R-35" vertex="1" connectable="0">
          <mxGeometry x="-0.056" y="1" relative="1" as="geometry">
            <mxPoint as="offset" />
          </mxGeometry>
        </mxCell>
        <mxCell id="u-Qdk7PA7i_6lC7Le9-R-36" style="edgeStyle=orthogonalEdgeStyle;rounded=0;orthogonalLoop=1;jettySize=auto;html=1;entryX=0.442;entryY=0.017;entryDx=0;entryDy=0;entryPerimeter=0;" parent="WIyWlLk6GJQsqaUBKTNV-1" source="u-Qdk7PA7i_6lC7Le9-R-34" target="u-Qdk7PA7i_6lC7Le9-R-40" edge="1">
          <mxGeometry relative="1" as="geometry">
            <mxPoint x="220" y="690" as="targetPoint" />
          </mxGeometry>
        </mxCell>
        <mxCell id="u-Qdk7PA7i_6lC7Le9-R-38" value="profissional" style="edgeLabel;html=1;align=center;verticalAlign=middle;resizable=0;points=[];" parent="u-Qdk7PA7i_6lC7Le9-R-36" vertex="1" connectable="0">
          <mxGeometry x="0.3077" y="4" relative="1" as="geometry">
            <mxPoint x="-23" y="-31" as="offset" />
          </mxGeometry>
        </mxCell>
        <mxCell id="u-Qdk7PA7i_6lC7Le9-R-34" value="Pretende utilizar de forma básica ou profissional estas apliacações?" style="rhombus;whiteSpace=wrap;html=1;fillColor=#ffe6cc;strokeColor=#d79b00;" parent="WIyWlLk6GJQsqaUBKTNV-1" vertex="1">
          <mxGeometry x="-107.5" y="480" width="215" height="200" as="geometry" />
        </mxCell>
        <mxCell id="u-Qdk7PA7i_6lC7Le9-R-39" value="" style="rounded=1;whiteSpace=wrap;html=1;fillColor=#d5e8d4;strokeColor=#82b366;" parent="WIyWlLk6GJQsqaUBKTNV-1" vertex="1">
          <mxGeometry x="-260" y="670" width="120" height="60" as="geometry" />
        </mxCell>
        <mxCell id="u-Qdk7PA7i_6lC7Le9-R-59" style="edgeStyle=orthogonalEdgeStyle;rounded=0;orthogonalLoop=1;jettySize=auto;html=1;entryX=1;entryY=0.5;entryDx=0;entryDy=0;" parent="WIyWlLk6GJQsqaUBKTNV-1" source="u-Qdk7PA7i_6lC7Le9-R-40" target="141" edge="1">
          <mxGeometry relative="1" as="geometry">
            <Array as="points">
              <mxPoint x="226" y="910" />
            </Array>
          </mxGeometry>
        </mxCell>
        <mxCell id="u-Qdk7PA7i_6lC7Le9-R-40" value="" style="rounded=1;whiteSpace=wrap;html=1;fillColor=#d5e8d4;strokeColor=#82b366;" parent="WIyWlLk6GJQsqaUBKTNV-1" vertex="1">
          <mxGeometry x="166" y="670" width="120" height="60" as="geometry" />
        </mxCell>
        <mxCell id="u-Qdk7PA7i_6lC7Le9-R-46" style="edgeStyle=orthogonalEdgeStyle;rounded=0;orthogonalLoop=1;jettySize=auto;html=1;entryX=0.5;entryY=0;entryDx=0;entryDy=0;" parent="WIyWlLk6GJQsqaUBKTNV-1" source="u-Qdk7PA7i_6lC7Le9-R-43" target="u-Qdk7PA7i_6lC7Le9-R-48" edge="1">
          <mxGeometry relative="1" as="geometry">
            <mxPoint x="543.5" y="830" as="targetPoint" />
          </mxGeometry>
        </mxCell>
        <mxCell id="u-Qdk7PA7i_6lC7Le9-R-47" value="não, trabalho com ficheiros simples" style="edgeLabel;html=1;align=center;verticalAlign=middle;resizable=0;points=[];" parent="u-Qdk7PA7i_6lC7Le9-R-46" vertex="1" connectable="0">
          <mxGeometry x="0.1756" y="-1" relative="1" as="geometry">
            <mxPoint x="6" y="19" as="offset" />
          </mxGeometry>
        </mxCell>
        <mxCell id="u-Qdk7PA7i_6lC7Le9-R-53" style="edgeStyle=orthogonalEdgeStyle;rounded=0;orthogonalLoop=1;jettySize=auto;html=1;entryX=0.5;entryY=0;entryDx=0;entryDy=0;" parent="WIyWlLk6GJQsqaUBKTNV-1" source="u-Qdk7PA7i_6lC7Le9-R-43" target="u-Qdk7PA7i_6lC7Le9-R-49" edge="1">
          <mxGeometry relative="1" as="geometry" />
        </mxCell>
        <mxCell id="u-Qdk7PA7i_6lC7Le9-R-54" value="&lt;span style=&quot;color: rgba(0, 0, 0, 0); font-family: monospace; font-size: 0px; text-align: start; background-color: rgb(248, 249, 250);&quot;&gt;%3CmxGraphModel%3E%3Croot%3E%3CmxCell%20id%3D%220%22%2F%3E%3CmxCell%20id%3D%221%22%20parent%3D%220%22%2F%3E%3CmxCell%20id%3D%222%22%20value%3D%22sim%2C%20utilizar%20base%20de%20dados%22%20style%3D%22edgeLabel%3Bhtml%3D1%3Balign%3Dcenter%3BverticalAlign%3Dmiddle%3Bresizable%3D0%3Bpoints%3D%5B%5D%3B%22%20vertex%3D%221%22%20connectable%3D%220%22%20parent%3D%221%22%3E%3CmxGeometry%20x%3D%221116%22%20y%3D%22630%22%20as%3D%22geometry%22%2F%3E%3C%2FmxCell%3E%3C%2Froot%3E%3C%2FmxGraphModel%3Esim&lt;/span&gt;" style="edgeLabel;html=1;align=center;verticalAlign=middle;resizable=0;points=[];" parent="u-Qdk7PA7i_6lC7Le9-R-53" vertex="1" connectable="0">
          <mxGeometry x="-0.1376" y="4" relative="1" as="geometry">
            <mxPoint as="offset" />
          </mxGeometry>
        </mxCell>
        <mxCell id="u-Qdk7PA7i_6lC7Le9-R-55" value="sim, trabalho com base de dados" style="edgeLabel;html=1;align=center;verticalAlign=middle;resizable=0;points=[];" parent="u-Qdk7PA7i_6lC7Le9-R-53" vertex="1" connectable="0">
          <mxGeometry x="-0.1786" relative="1" as="geometry">
            <mxPoint x="26" y="16" as="offset" />
          </mxGeometry>
        </mxCell>
        <mxCell id="u-Qdk7PA7i_6lC7Le9-R-43" value="Pretende realizar regularmente operações de pesquisa e modificação à base de dados?" style="rhombus;whiteSpace=wrap;html=1;fillColor=#ffe6cc;strokeColor=#d79b00;" parent="WIyWlLk6GJQsqaUBKTNV-1" vertex="1">
          <mxGeometry x="690" y="364" width="260" height="220" as="geometry" />
        </mxCell>
        <mxCell id="u-Qdk7PA7i_6lC7Le9-R-64" style="edgeStyle=orthogonalEdgeStyle;rounded=0;orthogonalLoop=1;jettySize=auto;html=1;entryX=0.5;entryY=0;entryDx=0;entryDy=0;" parent="WIyWlLk6GJQsqaUBKTNV-1" source="u-Qdk7PA7i_6lC7Le9-R-48" edge="1" target="u-Qdk7PA7i_6lC7Le9-R-18">
          <mxGeometry relative="1" as="geometry">
            <mxPoint x="470" y="1340" as="targetPoint" />
            <Array as="points">
              <mxPoint x="560" y="1260" />
              <mxPoint x="1690" y="1260" />
            </Array>
          </mxGeometry>
        </mxCell>
        <mxCell id="u-Qdk7PA7i_6lC7Le9-R-48" value="" style="rounded=1;whiteSpace=wrap;html=1;fillColor=#d5e8d4;strokeColor=#82b366;" parent="WIyWlLk6GJQsqaUBKTNV-1" vertex="1">
          <mxGeometry x="490" y="730" width="120" height="60" as="geometry" />
        </mxCell>
        <mxCell id="u-Qdk7PA7i_6lC7Le9-R-65" style="edgeStyle=orthogonalEdgeStyle;rounded=0;orthogonalLoop=1;jettySize=auto;html=1;exitX=0.5;exitY=1;exitDx=0;exitDy=0;" parent="WIyWlLk6GJQsqaUBKTNV-1" source="6vRDBdTw8ivvEX-BXhWZ-156" target="u-Qdk7PA7i_6lC7Le9-R-18" edge="1">
          <mxGeometry relative="1" as="geometry">
            <Array as="points">
              <mxPoint x="1520" y="1080" />
              <mxPoint x="1520" y="1170" />
              <mxPoint x="1690" y="1170" />
            </Array>
          </mxGeometry>
        </mxCell>
        <mxCell id="6vRDBdTw8ivvEX-BXhWZ-155" style="edgeStyle=orthogonalEdgeStyle;rounded=0;orthogonalLoop=1;jettySize=auto;html=1;entryX=0.5;entryY=0;entryDx=0;entryDy=0;" edge="1" parent="WIyWlLk6GJQsqaUBKTNV-1" source="u-Qdk7PA7i_6lC7Le9-R-49" target="6vRDBdTw8ivvEX-BXhWZ-154">
          <mxGeometry relative="1" as="geometry" />
        </mxCell>
        <mxCell id="u-Qdk7PA7i_6lC7Le9-R-49" value="" style="rounded=1;whiteSpace=wrap;html=1;fillColor=#d5e8d4;strokeColor=#82b366;" parent="WIyWlLk6GJQsqaUBKTNV-1" vertex="1">
          <mxGeometry x="1624.85" y="519.89" width="120" height="60" as="geometry" />
        </mxCell>
        <mxCell id="u-Qdk7PA7i_6lC7Le9-R-51" style="edgeStyle=orthogonalEdgeStyle;rounded=0;orthogonalLoop=1;jettySize=auto;html=1;" parent="WIyWlLk6GJQsqaUBKTNV-1" source="u-Qdk7PA7i_6lC7Le9-R-50" target="u-Qdk7PA7i_6lC7Le9-R-43" edge="1">
          <mxGeometry relative="1" as="geometry" />
        </mxCell>
        <mxCell id="u-Qdk7PA7i_6lC7Le9-R-50" value="&lt;span style=&quot;font-size: 11px; background-color: rgb(255, 255, 255);&quot;&gt;Aplicações profissionais&lt;/span&gt;" style="rounded=1;whiteSpace=wrap;html=1;" parent="WIyWlLk6GJQsqaUBKTNV-1" vertex="1">
          <mxGeometry x="760" y="234" width="120" height="60" as="geometry" />
        </mxCell>
        <mxCell id="u-Qdk7PA7i_6lC7Le9-R-67" value="Hipotese/Facto" style="rounded=1;whiteSpace=wrap;html=1;fillColor=#d5e8d4;strokeColor=#82b366;" parent="WIyWlLk6GJQsqaUBKTNV-1" vertex="1">
          <mxGeometry x="1604.5" y="2569" width="120" height="60" as="geometry" />
        </mxCell>
        <mxCell id="u-Qdk7PA7i_6lC7Le9-R-72" style="edgeStyle=orthogonalEdgeStyle;rounded=0;orthogonalLoop=1;jettySize=auto;html=1;entryX=0.434;entryY=-0.01;entryDx=0;entryDy=0;entryPerimeter=0;" parent="WIyWlLk6GJQsqaUBKTNV-1" target="u-Qdk7PA7i_6lC7Le9-R-75" edge="1">
          <mxGeometry relative="1" as="geometry">
            <mxPoint x="1307.93" y="-300" as="targetPoint" />
            <Array as="points">
              <mxPoint x="1268" y="-495" />
              <mxPoint x="1268" y="-301" />
            </Array>
            <mxPoint x="1560.4974740484424" y="-494.9411764705883" as="sourcePoint" />
          </mxGeometry>
        </mxCell>
        <mxCell id="u-Qdk7PA7i_6lC7Le9-R-74" value="nível baixo (300€-600€)" style="edgeLabel;html=1;align=center;verticalAlign=middle;resizable=0;points=[];" parent="u-Qdk7PA7i_6lC7Le9-R-72" vertex="1" connectable="0">
          <mxGeometry x="0.0339" relative="1" as="geometry">
            <mxPoint x="-39" y="125" as="offset" />
          </mxGeometry>
        </mxCell>
        <mxCell id="u-Qdk7PA7i_6lC7Le9-R-79" style="edgeStyle=orthogonalEdgeStyle;rounded=0;orthogonalLoop=1;jettySize=auto;html=1;" parent="WIyWlLk6GJQsqaUBKTNV-1" source="u-Qdk7PA7i_6lC7Le9-R-70" target="u-Qdk7PA7i_6lC7Le9-R-78" edge="1">
          <mxGeometry relative="1" as="geometry">
            <Array as="points">
              <mxPoint x="1448" y="-495" />
              <mxPoint x="1448" y="-270" />
            </Array>
          </mxGeometry>
        </mxCell>
        <mxCell id="u-Qdk7PA7i_6lC7Le9-R-80" value="nivel médio-baixo (600€-1000€)" style="edgeLabel;html=1;align=center;verticalAlign=middle;resizable=0;points=[];" parent="u-Qdk7PA7i_6lC7Le9-R-79" vertex="1" connectable="0">
          <mxGeometry x="-0.1986" relative="1" as="geometry">
            <mxPoint x="-10" y="114" as="offset" />
          </mxGeometry>
        </mxCell>
        <mxCell id="u-Qdk7PA7i_6lC7Le9-R-81" style="edgeStyle=orthogonalEdgeStyle;rounded=0;orthogonalLoop=1;jettySize=auto;html=1;entryX=0.5;entryY=0;entryDx=0;entryDy=0;" parent="WIyWlLk6GJQsqaUBKTNV-1" source="u-Qdk7PA7i_6lC7Le9-R-70" target="u-Qdk7PA7i_6lC7Le9-R-82" edge="1">
          <mxGeometry relative="1" as="geometry">
            <mxPoint x="1918" y="-299.9999999999998" as="targetPoint" />
            <Array as="points">
              <mxPoint x="1894" y="-495" />
            </Array>
          </mxGeometry>
        </mxCell>
        <mxCell id="u-Qdk7PA7i_6lC7Le9-R-83" value="nivel médio-alto(1500€-2000€)" style="edgeLabel;html=1;align=center;verticalAlign=middle;resizable=0;points=[];" parent="u-Qdk7PA7i_6lC7Le9-R-81" vertex="1" connectable="0">
          <mxGeometry x="0.0972" relative="1" as="geometry">
            <mxPoint y="81" as="offset" />
          </mxGeometry>
        </mxCell>
        <mxCell id="u-Qdk7PA7i_6lC7Le9-R-70" value="Qual o intervalo de preços que melhor se adequa ao pretendido?&amp;nbsp;&amp;nbsp;" style="rhombus;whiteSpace=wrap;html=1;shadow=0;fontFamily=Helvetica;fontSize=12;align=center;strokeWidth=1;spacing=6;spacingTop=-4;fillColor=#ffe6cc;strokeColor=#d79b00;" parent="WIyWlLk6GJQsqaUBKTNV-1" vertex="1">
          <mxGeometry x="1560.5" y="-580" width="195" height="170" as="geometry" />
        </mxCell>
        <mxCell id="u-Qdk7PA7i_6lC7Le9-R-85" style="edgeStyle=orthogonalEdgeStyle;rounded=0;orthogonalLoop=1;jettySize=auto;html=1;" parent="WIyWlLk6GJQsqaUBKTNV-1" source="u-Qdk7PA7i_6lC7Le9-R-75" edge="1">
          <mxGeometry relative="1" as="geometry">
            <Array as="points">
              <mxPoint x="1278" y="-80" />
              <mxPoint x="1660" y="-80" />
            </Array>
            <mxPoint x="1660" as="targetPoint" />
          </mxGeometry>
        </mxCell>
        <mxCell id="u-Qdk7PA7i_6lC7Le9-R-75" value="" style="rounded=1;whiteSpace=wrap;html=1;fillColor=#d5e8d4;strokeColor=#82b366;" parent="WIyWlLk6GJQsqaUBKTNV-1" vertex="1">
          <mxGeometry x="1218" y="-300" width="120" height="60" as="geometry" />
        </mxCell>
        <mxCell id="u-Qdk7PA7i_6lC7Le9-R-86" style="edgeStyle=orthogonalEdgeStyle;rounded=0;orthogonalLoop=1;jettySize=auto;html=1;" parent="WIyWlLk6GJQsqaUBKTNV-1" source="u-Qdk7PA7i_6lC7Le9-R-78" edge="1">
          <mxGeometry relative="1" as="geometry">
            <Array as="points">
              <mxPoint x="1458" y="-80" />
              <mxPoint x="1660" y="-80" />
            </Array>
            <mxPoint x="1660" as="targetPoint" />
          </mxGeometry>
        </mxCell>
        <mxCell id="u-Qdk7PA7i_6lC7Le9-R-78" value="" style="rounded=1;whiteSpace=wrap;html=1;fillColor=#d5e8d4;strokeColor=#82b366;" parent="WIyWlLk6GJQsqaUBKTNV-1" vertex="1">
          <mxGeometry x="1398" y="-300" width="120" height="60" as="geometry" />
        </mxCell>
        <mxCell id="u-Qdk7PA7i_6lC7Le9-R-87" style="edgeStyle=orthogonalEdgeStyle;rounded=0;orthogonalLoop=1;jettySize=auto;html=1;" parent="WIyWlLk6GJQsqaUBKTNV-1" source="u-Qdk7PA7i_6lC7Le9-R-82" edge="1">
          <mxGeometry relative="1" as="geometry">
            <mxPoint x="1660" as="targetPoint" />
            <Array as="points">
              <mxPoint x="1894" y="-80" />
              <mxPoint x="1660" y="-80" />
            </Array>
          </mxGeometry>
        </mxCell>
        <mxCell id="u-Qdk7PA7i_6lC7Le9-R-82" value="" style="rounded=1;whiteSpace=wrap;html=1;fillColor=#d5e8d4;strokeColor=#82b366;" parent="WIyWlLk6GJQsqaUBKTNV-1" vertex="1">
          <mxGeometry x="1834" y="-300" width="120" height="60" as="geometry" />
        </mxCell>
        <mxCell id="0" style="edgeStyle=orthogonalEdgeStyle;rounded=0;orthogonalLoop=1;jettySize=auto;html=1;" parent="WIyWlLk6GJQsqaUBKTNV-1" source="u-Qdk7PA7i_6lC7Le9-R-70" target="2" edge="1">
          <mxGeometry relative="1" as="geometry">
            <mxPoint x="1725.4655172413795" y="-479.7736516357204" as="sourcePoint" />
            <Array as="points">
              <mxPoint x="1658" y="-250" />
            </Array>
          </mxGeometry>
        </mxCell>
        <mxCell id="1" value="nivel médio (1000€-1500€)" style="edgeLabel;html=1;align=center;verticalAlign=middle;resizable=0;points=[];" parent="0" vertex="1" connectable="0">
          <mxGeometry x="-0.1986" relative="1" as="geometry">
            <mxPoint x="15" as="offset" />
          </mxGeometry>
        </mxCell>
        <mxCell id="2" value="" style="rounded=1;whiteSpace=wrap;html=1;fillColor=#d5e8d4;strokeColor=#82b366;" parent="WIyWlLk6GJQsqaUBKTNV-1" vertex="1">
          <mxGeometry x="1598" y="-300" width="120" height="60" as="geometry" />
        </mxCell>
        <mxCell id="3" style="edgeStyle=orthogonalEdgeStyle;rounded=0;orthogonalLoop=1;jettySize=auto;html=1;exitX=0.5;exitY=1;exitDx=0;exitDy=0;entryX=0.5;entryY=0;entryDx=0;entryDy=0;" parent="WIyWlLk6GJQsqaUBKTNV-1" source="2" target="WIyWlLk6GJQsqaUBKTNV-6" edge="1">
          <mxGeometry relative="1" as="geometry">
            <mxPoint x="37.9655172413793" y="-90" as="sourcePoint" />
            <mxPoint x="1650" y="-30" as="targetPoint" />
            <Array as="points">
              <mxPoint x="1660" y="-240" />
            </Array>
          </mxGeometry>
        </mxCell>
        <mxCell id="4" style="edgeStyle=orthogonalEdgeStyle;rounded=0;orthogonalLoop=1;jettySize=auto;html=1;entryX=0.5;entryY=0;entryDx=0;entryDy=0;exitX=1;exitY=0.5;exitDx=0;exitDy=0;" parent="WIyWlLk6GJQsqaUBKTNV-1" source="u-Qdk7PA7i_6lC7Le9-R-70" target="7" edge="1">
          <mxGeometry relative="1" as="geometry">
            <mxPoint x="2094" y="-299.9999999999998" as="targetPoint" />
            <Array as="points">
              <mxPoint x="2070" y="-495" />
            </Array>
            <mxPoint x="1931.5" y="-495" as="sourcePoint" />
          </mxGeometry>
        </mxCell>
        <mxCell id="5" value="nível elevado (2000€+)&amp;nbsp;" style="edgeLabel;html=1;align=center;verticalAlign=middle;resizable=0;points=[];" parent="4" vertex="1" connectable="0">
          <mxGeometry x="0.0972" relative="1" as="geometry">
            <mxPoint x="43" y="125" as="offset" />
          </mxGeometry>
        </mxCell>
        <mxCell id="6" style="edgeStyle=orthogonalEdgeStyle;rounded=0;orthogonalLoop=1;jettySize=auto;html=1;entryX=0.5;entryY=0;entryDx=0;entryDy=0;" parent="WIyWlLk6GJQsqaUBKTNV-1" source="7" edge="1" target="WIyWlLk6GJQsqaUBKTNV-6">
          <mxGeometry relative="1" as="geometry">
            <mxPoint x="1728" as="targetPoint" />
            <Array as="points">
              <mxPoint x="2070" y="-80" />
              <mxPoint x="1660" y="-80" />
            </Array>
          </mxGeometry>
        </mxCell>
        <mxCell id="7" value="" style="rounded=1;whiteSpace=wrap;html=1;fillColor=#d5e8d4;strokeColor=#82b366;" parent="WIyWlLk6GJQsqaUBKTNV-1" vertex="1">
          <mxGeometry x="2010" y="-300" width="120" height="60" as="geometry" />
        </mxCell>
        <mxCell id="9" value="O sistema sugeriu a quantidade de RAM mínima, aceita ou prefere aumentar?" style="rhombus;whiteSpace=wrap;html=1;fillColor=#ffe6cc;strokeColor=#d79b00;" parent="WIyWlLk6GJQsqaUBKTNV-1" vertex="1">
          <mxGeometry x="1140" y="2230" width="187.5" height="130" as="geometry" />
        </mxCell>
        <mxCell id="11" style="edgeStyle=orthogonalEdgeStyle;rounded=0;orthogonalLoop=1;jettySize=auto;html=1;entryX=0.5;entryY=0;entryDx=0;entryDy=0;" parent="WIyWlLk6GJQsqaUBKTNV-1" edge="1" target="u-Qdk7PA7i_6lC7Le9-R-23">
          <mxGeometry relative="1" as="geometry">
            <mxPoint x="1514" y="2384" as="targetPoint" />
            <mxPoint x="1327.5" y="2300" as="sourcePoint" />
          </mxGeometry>
        </mxCell>
        <mxCell id="12" value="prefere aumentar" style="edgeLabel;html=1;align=center;verticalAlign=middle;resizable=0;points=[];" parent="11" vertex="1" connectable="0">
          <mxGeometry x="-0.3826" y="1" relative="1" as="geometry">
            <mxPoint x="14" y="-9" as="offset" />
          </mxGeometry>
        </mxCell>
        <mxCell id="13" style="edgeStyle=orthogonalEdgeStyle;rounded=0;orthogonalLoop=1;jettySize=auto;html=1;entryX=0.5;entryY=0;entryDx=0;entryDy=0;" parent="WIyWlLk6GJQsqaUBKTNV-1" source="9" target="15" edge="1">
          <mxGeometry relative="1" as="geometry">
            <mxPoint x="1120" y="2770" as="targetPoint" />
            <mxPoint x="1120" y="2350" as="sourcePoint" />
            <Array as="points">
              <mxPoint x="1120" y="2295" />
              <mxPoint x="1120" y="2690" />
              <mxPoint x="1272" y="2690" />
            </Array>
          </mxGeometry>
        </mxCell>
        <mxCell id="14" value="aceita" style="edgeLabel;html=1;align=center;verticalAlign=middle;resizable=0;points=[];" parent="13" vertex="1" connectable="0">
          <mxGeometry x="-0.3826" y="1" relative="1" as="geometry">
            <mxPoint as="offset" />
          </mxGeometry>
        </mxCell>
        <mxCell id="15" value="S&lt;br&gt;O computador necessita de gráfica dedicada?" style="rhombus;whiteSpace=wrap;html=1;fillColor=#f5f5f5;fontColor=#333333;strokeColor=#666666;" parent="WIyWlLk6GJQsqaUBKTNV-1" vertex="1">
          <mxGeometry x="1178.5" y="2740" width="187.5" height="130" as="geometry" />
        </mxCell>
        <mxCell id="17" style="edgeStyle=orthogonalEdgeStyle;rounded=0;orthogonalLoop=1;jettySize=auto;html=1;entryX=0.5;entryY=0;entryDx=0;entryDy=0;" parent="WIyWlLk6GJQsqaUBKTNV-1" target="15" edge="1">
          <mxGeometry relative="1" as="geometry">
            <mxPoint x="1394" y="2753" as="targetPoint" />
            <mxPoint x="1394" y="2629" as="sourcePoint" />
            <Array as="points">
              <mxPoint x="1394" y="2690" />
              <mxPoint x="1272" y="2690" />
            </Array>
          </mxGeometry>
        </mxCell>
        <mxCell id="19" style="edgeStyle=orthogonalEdgeStyle;rounded=0;orthogonalLoop=1;jettySize=auto;html=1;entryX=0.5;entryY=0;entryDx=0;entryDy=0;" parent="WIyWlLk6GJQsqaUBKTNV-1" target="15" edge="1">
          <mxGeometry relative="1" as="geometry">
            <mxPoint x="1300" y="2749" as="targetPoint" />
            <mxPoint x="1667.75" y="2629" as="sourcePoint" />
            <Array as="points">
              <mxPoint x="1668" y="2690" />
              <mxPoint x="1272" y="2690" />
              <mxPoint x="1272" y="2740" />
            </Array>
          </mxGeometry>
        </mxCell>
        <mxCell id="20" style="edgeStyle=orthogonalEdgeStyle;rounded=0;orthogonalLoop=1;jettySize=auto;html=1;exitX=1;exitY=0.5;exitDx=0;exitDy=0;entryX=0.5;entryY=0;entryDx=0;entryDy=0;" parent="WIyWlLk6GJQsqaUBKTNV-1" source="15" target="34" edge="1">
          <mxGeometry relative="1" as="geometry">
            <mxPoint x="1553" y="2884" as="targetPoint" />
            <mxPoint x="1366" y="2800.0299999999997" as="sourcePoint" />
          </mxGeometry>
        </mxCell>
        <mxCell id="21" value="sim" style="edgeLabel;html=1;align=center;verticalAlign=middle;resizable=0;points=[];" parent="20" vertex="1" connectable="0">
          <mxGeometry x="-0.3826" y="1" relative="1" as="geometry">
            <mxPoint as="offset" />
          </mxGeometry>
        </mxCell>
        <mxCell id="22" style="edgeStyle=orthogonalEdgeStyle;rounded=0;orthogonalLoop=1;jettySize=auto;html=1;exitX=0;exitY=0.5;exitDx=0;exitDy=0;entryX=0.51;entryY=-0.002;entryDx=0;entryDy=0;entryPerimeter=0;" parent="WIyWlLk6GJQsqaUBKTNV-1" source="15" target="24" edge="1">
          <mxGeometry relative="1" as="geometry">
            <mxPoint x="1010" y="2870" as="targetPoint" />
            <mxPoint x="1376" y="2814.9999999999995" as="sourcePoint" />
            <Array as="points">
              <mxPoint x="1178" y="2810" />
              <mxPoint x="1016" y="2810" />
              <mxPoint x="1016" y="2860" />
              <mxPoint x="1016" y="2860" />
            </Array>
          </mxGeometry>
        </mxCell>
        <mxCell id="23" value="não, mas tem possibilidade de acrescentar" style="edgeLabel;html=1;align=center;verticalAlign=middle;resizable=0;points=[];" parent="22" vertex="1" connectable="0">
          <mxGeometry x="-0.3826" y="1" relative="1" as="geometry">
            <mxPoint x="-7" y="94" as="offset" />
          </mxGeometry>
        </mxCell>
        <mxCell id="24" value="Pretende realizar trabalhos mais pesados a nível gráfico (jogos, sistemas 3D)?" style="rhombus;whiteSpace=wrap;html=1;fillColor=#ffe6cc;strokeColor=#d79b00;" parent="WIyWlLk6GJQsqaUBKTNV-1" vertex="1">
          <mxGeometry x="920" y="3070" width="187.5" height="130" as="geometry" />
        </mxCell>
        <mxCell id="28" style="edgeStyle=orthogonalEdgeStyle;rounded=0;orthogonalLoop=1;jettySize=auto;html=1;entryX=0.5;entryY=0;entryDx=0;entryDy=0;" parent="WIyWlLk6GJQsqaUBKTNV-1" target="62" edge="1">
          <mxGeometry relative="1" as="geometry">
            <mxPoint x="690" y="3450" as="targetPoint" />
            <mxPoint x="1020" y="2810" as="sourcePoint" />
            <Array as="points">
              <mxPoint x="690" y="2810" />
              <mxPoint x="690" y="3630" />
              <mxPoint x="1259" y="3630" />
            </Array>
          </mxGeometry>
        </mxCell>
        <mxCell id="29" value="não" style="edgeLabel;html=1;align=center;verticalAlign=middle;resizable=0;points=[];" parent="28" vertex="1" connectable="0">
          <mxGeometry x="-0.3826" y="1" relative="1" as="geometry">
            <mxPoint as="offset" />
          </mxGeometry>
        </mxCell>
        <mxCell id="32" value="" style="endArrow=none;html=1;rounded=0;entryX=0;entryY=0.5;entryDx=0;entryDy=0;" parent="WIyWlLk6GJQsqaUBKTNV-1" target="24" edge="1">
          <mxGeometry width="50" height="50" relative="1" as="geometry">
            <mxPoint x="690" y="3135" as="sourcePoint" />
            <mxPoint x="920" y="3270" as="targetPoint" />
          </mxGeometry>
        </mxCell>
        <mxCell id="33" value="não" style="edgeLabel;html=1;align=center;verticalAlign=middle;resizable=0;points=[];" parent="32" vertex="1" connectable="0">
          <mxGeometry x="0.0954" y="3" relative="1" as="geometry">
            <mxPoint y="-2" as="offset" />
          </mxGeometry>
        </mxCell>
        <mxCell id="34" value="Prefere NVIDIA/AMD?" style="rhombus;whiteSpace=wrap;html=1;fillColor=#ffe6cc;strokeColor=#d79b00;" parent="WIyWlLk6GJQsqaUBKTNV-1" vertex="1">
          <mxGeometry x="1460" y="2900" width="187.5" height="130" as="geometry" />
        </mxCell>
        <mxCell id="35" style="edgeStyle=orthogonalEdgeStyle;rounded=0;orthogonalLoop=1;jettySize=auto;html=1;exitX=1;exitY=0.5;exitDx=0;exitDy=0;" parent="WIyWlLk6GJQsqaUBKTNV-1" source="24" edge="1">
          <mxGeometry relative="1" as="geometry">
            <mxPoint x="1554" y="2900" as="targetPoint" />
            <mxPoint x="1376" y="2815" as="sourcePoint" />
            <Array as="points">
              <mxPoint x="1240" y="3135" />
              <mxPoint x="1240" y="2888" />
            </Array>
          </mxGeometry>
        </mxCell>
        <mxCell id="36" value="sim" style="edgeLabel;html=1;align=center;verticalAlign=middle;resizable=0;points=[];" parent="35" vertex="1" connectable="0">
          <mxGeometry x="-0.3826" y="1" relative="1" as="geometry">
            <mxPoint as="offset" />
          </mxGeometry>
        </mxCell>
        <mxCell id="37" style="edgeStyle=orthogonalEdgeStyle;rounded=0;orthogonalLoop=1;jettySize=auto;html=1;exitX=0;exitY=0.5;exitDx=0;exitDy=0;entryX=0.5;entryY=0;entryDx=0;entryDy=0;" parent="WIyWlLk6GJQsqaUBKTNV-1" source="34" target="39" edge="1">
          <mxGeometry relative="1" as="geometry">
            <mxPoint x="1877" y="2995" as="targetPoint" />
            <mxPoint x="1462" y="2960" as="sourcePoint" />
            <Array as="points">
              <mxPoint x="1426" y="2965" />
            </Array>
          </mxGeometry>
        </mxCell>
        <mxCell id="38" value="NVIDIA" style="edgeLabel;html=1;align=center;verticalAlign=middle;resizable=0;points=[];" parent="37" vertex="1" connectable="0">
          <mxGeometry x="-0.1812" relative="1" as="geometry">
            <mxPoint y="23" as="offset" />
          </mxGeometry>
        </mxCell>
        <mxCell id="39" value="" style="rounded=1;whiteSpace=wrap;html=1;fillColor=#d5e8d4;strokeColor=#82b366;" parent="WIyWlLk6GJQsqaUBKTNV-1" vertex="1">
          <mxGeometry x="1366" y="3084" width="120" height="60" as="geometry" />
        </mxCell>
        <mxCell id="40" style="edgeStyle=orthogonalEdgeStyle;rounded=0;orthogonalLoop=1;jettySize=auto;html=1;exitX=1;exitY=0.5;exitDx=0;exitDy=0;" parent="WIyWlLk6GJQsqaUBKTNV-1" source="34" target="42" edge="1">
          <mxGeometry relative="1" as="geometry">
            <mxPoint x="2187" y="2995" as="targetPoint" />
            <mxPoint x="1650" y="2965" as="sourcePoint" />
            <Array as="points">
              <mxPoint x="1670" y="2965" />
            </Array>
          </mxGeometry>
        </mxCell>
        <mxCell id="41" value="AMD" style="edgeLabel;html=1;align=center;verticalAlign=middle;resizable=0;points=[];" parent="40" vertex="1" connectable="0">
          <mxGeometry x="-0.1812" relative="1" as="geometry">
            <mxPoint y="23" as="offset" />
          </mxGeometry>
        </mxCell>
        <mxCell id="42" value="" style="rounded=1;whiteSpace=wrap;html=1;fillColor=#d5e8d4;strokeColor=#82b366;" parent="WIyWlLk6GJQsqaUBKTNV-1" vertex="1">
          <mxGeometry x="1609.5" y="3084" width="120" height="60" as="geometry" />
        </mxCell>
        <mxCell id="46" value="S&lt;br&gt;A finalidade é gaming?" style="rhombus;whiteSpace=wrap;html=1;fillColor=#f5f5f5;fontColor=#333333;strokeColor=#666666;" parent="WIyWlLk6GJQsqaUBKTNV-1" vertex="1">
          <mxGeometry x="1460" y="3180" width="187.5" height="130" as="geometry" />
        </mxCell>
        <mxCell id="47" style="edgeStyle=orthogonalEdgeStyle;rounded=0;orthogonalLoop=1;jettySize=auto;html=1;entryX=0.5;entryY=0;entryDx=0;entryDy=0;exitX=0.5;exitY=1;exitDx=0;exitDy=0;" parent="WIyWlLk6GJQsqaUBKTNV-1" target="46" edge="1" source="39">
          <mxGeometry relative="1" as="geometry">
            <mxPoint x="1435" y="3251" as="targetPoint" />
            <mxPoint x="1435" y="3140" as="sourcePoint" />
            <Array as="points">
              <mxPoint x="1426" y="3160" />
              <mxPoint x="1554" y="3160" />
            </Array>
          </mxGeometry>
        </mxCell>
        <mxCell id="49" style="edgeStyle=orthogonalEdgeStyle;rounded=0;orthogonalLoop=1;jettySize=auto;html=1;entryX=0.5;entryY=0;entryDx=0;entryDy=0;exitX=0.5;exitY=1;exitDx=0;exitDy=0;" parent="WIyWlLk6GJQsqaUBKTNV-1" target="46" edge="1" source="42">
          <mxGeometry relative="1" as="geometry">
            <mxPoint x="1758.75" y="3180" as="targetPoint" />
            <mxPoint x="1670" y="3160" as="sourcePoint" />
            <Array as="points">
              <mxPoint x="1669" y="3160" />
              <mxPoint x="1554" y="3160" />
            </Array>
          </mxGeometry>
        </mxCell>
        <mxCell id="50" style="edgeStyle=orthogonalEdgeStyle;rounded=0;orthogonalLoop=1;jettySize=auto;html=1;exitX=1;exitY=0.5;exitDx=0;exitDy=0;entryX=0.5;entryY=0;entryDx=0;entryDy=0;" parent="WIyWlLk6GJQsqaUBKTNV-1" source="46" target="52" edge="1">
          <mxGeometry relative="1" as="geometry">
            <mxPoint x="1835.2499999999995" y="3323" as="targetPoint" />
            <mxPoint x="1647.5" y="3240" as="sourcePoint" />
          </mxGeometry>
        </mxCell>
        <mxCell id="51" value="sim" style="edgeLabel;html=1;align=center;verticalAlign=middle;resizable=0;points=[];" parent="50" vertex="1" connectable="0">
          <mxGeometry x="-0.3826" y="1" relative="1" as="geometry">
            <mxPoint as="offset" />
          </mxGeometry>
        </mxCell>
        <mxCell id="52" value="Tem preferência de marca?" style="rhombus;whiteSpace=wrap;html=1;fillColor=#ffe6cc;strokeColor=#d79b00;" parent="WIyWlLk6GJQsqaUBKTNV-1" vertex="1">
          <mxGeometry x="1740" y="3330" width="187.5" height="130" as="geometry" />
        </mxCell>
        <mxCell id="53" style="edgeStyle=orthogonalEdgeStyle;rounded=0;orthogonalLoop=1;jettySize=auto;html=1;exitX=0;exitY=0.5;exitDx=0;exitDy=0;entryX=0.5;entryY=0;entryDx=0;entryDy=0;" parent="WIyWlLk6GJQsqaUBKTNV-1" source="52" target="62" edge="1">
          <mxGeometry relative="1" as="geometry">
            <mxPoint x="1680" y="3630" as="targetPoint" />
            <mxPoint x="1526.82" y="3430" as="sourcePoint" />
            <Array as="points">
              <mxPoint x="1680" y="3395" />
              <mxPoint x="1680" y="3630" />
              <mxPoint x="1259" y="3630" />
            </Array>
          </mxGeometry>
        </mxCell>
        <mxCell id="54" value="não" style="edgeLabel;html=1;align=center;verticalAlign=middle;resizable=0;points=[];" parent="53" vertex="1" connectable="0">
          <mxGeometry x="-0.3826" y="1" relative="1" as="geometry">
            <mxPoint x="-1" y="-73" as="offset" />
          </mxGeometry>
        </mxCell>
        <mxCell id="55" style="edgeStyle=orthogonalEdgeStyle;rounded=0;orthogonalLoop=1;jettySize=auto;html=1;exitX=1;exitY=0.5;exitDx=0;exitDy=0;" parent="WIyWlLk6GJQsqaUBKTNV-1" source="52" edge="1">
          <mxGeometry relative="1" as="geometry">
            <mxPoint x="1950" y="3560" as="targetPoint" />
            <mxPoint x="2010" y="3410" as="sourcePoint" />
            <Array as="points">
              <mxPoint x="1950" y="3395" />
            </Array>
          </mxGeometry>
        </mxCell>
        <mxCell id="56" value="sim" style="edgeLabel;html=1;align=center;verticalAlign=middle;resizable=0;points=[];" parent="55" vertex="1" connectable="0">
          <mxGeometry x="-0.3826" y="1" relative="1" as="geometry">
            <mxPoint x="-1" y="29" as="offset" />
          </mxGeometry>
        </mxCell>
        <mxCell id="57" value="" style="rounded=1;whiteSpace=wrap;html=1;fillColor=#d5e8d4;strokeColor=#82b366;" parent="WIyWlLk6GJQsqaUBKTNV-1" vertex="1">
          <mxGeometry x="1890" y="3560" width="120" height="60" as="geometry" />
        </mxCell>
        <mxCell id="60" style="edgeStyle=orthogonalEdgeStyle;rounded=0;orthogonalLoop=1;jettySize=auto;html=1;exitX=0.444;exitY=1.005;exitDx=0;exitDy=0;exitPerimeter=0;entryX=0.5;entryY=0;entryDx=0;entryDy=0;" parent="WIyWlLk6GJQsqaUBKTNV-1" source="57" target="62" edge="1">
          <mxGeometry relative="1" as="geometry">
            <mxPoint x="1260" y="3700" as="targetPoint" />
            <mxPoint x="1920" y="3600" as="sourcePoint" />
            <Array as="points">
              <mxPoint x="1943" y="3630" />
              <mxPoint x="1259" y="3630" />
            </Array>
          </mxGeometry>
        </mxCell>
        <mxCell id="62" value="Prefere INTEL/AMD?" style="rhombus;whiteSpace=wrap;html=1;fillColor=#ffe6cc;strokeColor=#d79b00;" parent="WIyWlLk6GJQsqaUBKTNV-1" vertex="1">
          <mxGeometry x="1165" y="3750" width="187.5" height="130" as="geometry" />
        </mxCell>
        <mxCell id="63" style="edgeStyle=orthogonalEdgeStyle;rounded=0;orthogonalLoop=1;jettySize=auto;html=1;exitX=0;exitY=0.5;exitDx=0;exitDy=0;entryX=0.5;entryY=0;entryDx=0;entryDy=0;" parent="WIyWlLk6GJQsqaUBKTNV-1" target="62" edge="1">
          <mxGeometry relative="1" as="geometry">
            <mxPoint x="983.1799999999996" y="3594.999999999999" as="targetPoint" />
            <mxPoint x="1464.4299999999996" y="3240" as="sourcePoint" />
            <Array as="points">
              <mxPoint x="1404" y="3240" />
              <mxPoint x="1404" y="3630" />
              <mxPoint x="1259" y="3630" />
            </Array>
          </mxGeometry>
        </mxCell>
        <mxCell id="64" value="não" style="edgeLabel;html=1;align=center;verticalAlign=middle;resizable=0;points=[];" parent="63" vertex="1" connectable="0">
          <mxGeometry x="-0.3826" y="1" relative="1" as="geometry">
            <mxPoint x="-1" y="-73" as="offset" />
          </mxGeometry>
        </mxCell>
        <mxCell id="69" style="edgeStyle=orthogonalEdgeStyle;rounded=0;orthogonalLoop=1;jettySize=auto;html=1;exitX=0;exitY=0.5;exitDx=0;exitDy=0;" parent="WIyWlLk6GJQsqaUBKTNV-1" target="71" edge="1">
          <mxGeometry relative="1" as="geometry">
            <mxPoint x="1587" y="3855.25" as="targetPoint" />
            <mxPoint x="1169.9999999999995" y="3813.25" as="sourcePoint" />
            <Array as="points">
              <mxPoint x="1140" y="3813.25" />
            </Array>
          </mxGeometry>
        </mxCell>
        <mxCell id="70" value="INTEL" style="edgeLabel;html=1;align=center;verticalAlign=middle;resizable=0;points=[];" parent="69" vertex="1" connectable="0">
          <mxGeometry x="-0.1812" relative="1" as="geometry">
            <mxPoint y="23" as="offset" />
          </mxGeometry>
        </mxCell>
        <mxCell id="71" value="" style="rounded=1;whiteSpace=wrap;html=1;fillColor=#d5e8d4;strokeColor=#82b366;" parent="WIyWlLk6GJQsqaUBKTNV-1" vertex="1">
          <mxGeometry x="1080" y="3944.25" width="120" height="60" as="geometry" />
        </mxCell>
        <mxCell id="72" style="edgeStyle=orthogonalEdgeStyle;rounded=0;orthogonalLoop=1;jettySize=auto;html=1;exitX=1;exitY=0.5;exitDx=0;exitDy=0;" parent="WIyWlLk6GJQsqaUBKTNV-1" source="62" target="74" edge="1">
          <mxGeometry relative="1" as="geometry">
            <mxPoint x="1897" y="3855.25" as="targetPoint" />
            <mxPoint x="1354" y="3813" as="sourcePoint" />
            <Array as="points">
              <mxPoint x="1353" y="3813" />
              <mxPoint x="1380" y="3813" />
            </Array>
          </mxGeometry>
        </mxCell>
        <mxCell id="73" value="AMD" style="edgeLabel;html=1;align=center;verticalAlign=middle;resizable=0;points=[];" parent="72" vertex="1" connectable="0">
          <mxGeometry x="-0.1812" relative="1" as="geometry">
            <mxPoint y="23" as="offset" />
          </mxGeometry>
        </mxCell>
        <mxCell id="74" value="" style="rounded=1;whiteSpace=wrap;html=1;fillColor=#d5e8d4;strokeColor=#82b366;" parent="WIyWlLk6GJQsqaUBKTNV-1" vertex="1">
          <mxGeometry x="1319.5" y="3944.25" width="120" height="60" as="geometry" />
        </mxCell>
        <mxCell id="75" value="S&lt;br&gt;A finalidade é gaming?" style="rhombus;whiteSpace=wrap;html=1;fillColor=#f5f5f5;fontColor=#333333;strokeColor=#666666;" parent="WIyWlLk6GJQsqaUBKTNV-1" vertex="1">
          <mxGeometry x="1170" y="4040.25" width="187.5" height="130" as="geometry" />
        </mxCell>
        <mxCell id="76" style="edgeStyle=orthogonalEdgeStyle;rounded=0;orthogonalLoop=1;jettySize=auto;html=1;entryX=0.5;entryY=0;entryDx=0;entryDy=0;exitX=0.5;exitY=1;exitDx=0;exitDy=0;" parent="WIyWlLk6GJQsqaUBKTNV-1" target="75" edge="1" source="71">
          <mxGeometry relative="1" as="geometry">
            <mxPoint x="1145" y="4111.25" as="targetPoint" />
            <mxPoint x="1145" y="4020" as="sourcePoint" />
            <Array as="points">
              <mxPoint x="1140" y="4020" />
              <mxPoint x="1264" y="4020" />
            </Array>
          </mxGeometry>
        </mxCell>
        <mxCell id="77" style="edgeStyle=orthogonalEdgeStyle;rounded=0;orthogonalLoop=1;jettySize=auto;html=1;entryX=0.5;entryY=0;entryDx=0;entryDy=0;exitX=0.5;exitY=1;exitDx=0;exitDy=0;" parent="WIyWlLk6GJQsqaUBKTNV-1" target="75" edge="1" source="74">
          <mxGeometry relative="1" as="geometry">
            <mxPoint x="1468.75" y="4040.25" as="targetPoint" />
            <mxPoint x="1380" y="4010" as="sourcePoint" />
            <Array as="points">
              <mxPoint x="1380" y="4020" />
              <mxPoint x="1264" y="4020" />
            </Array>
          </mxGeometry>
        </mxCell>
        <mxCell id="78" style="edgeStyle=orthogonalEdgeStyle;rounded=0;orthogonalLoop=1;jettySize=auto;html=1;exitX=1;exitY=0.5;exitDx=0;exitDy=0;entryX=0.5;entryY=0;entryDx=0;entryDy=0;" parent="WIyWlLk6GJQsqaUBKTNV-1" source="75" target="80" edge="1">
          <mxGeometry relative="1" as="geometry">
            <mxPoint x="1543.7499999999995" y="4188.0599999999995" as="targetPoint" />
            <mxPoint x="1355.9999999999995" y="4110.0599999999995" as="sourcePoint" />
            <Array as="points">
              <mxPoint x="1542" y="4105" />
            </Array>
          </mxGeometry>
        </mxCell>
        <mxCell id="79" value="sim" style="edgeLabel;html=1;align=center;verticalAlign=middle;resizable=0;points=[];" parent="78" vertex="1" connectable="0">
          <mxGeometry x="-0.3826" y="1" relative="1" as="geometry">
            <mxPoint as="offset" />
          </mxGeometry>
        </mxCell>
        <mxCell id="80" value="Pretende fazer OC?" style="rhombus;whiteSpace=wrap;html=1;fillColor=#ffe6cc;strokeColor=#d79b00;" parent="WIyWlLk6GJQsqaUBKTNV-1" vertex="1">
          <mxGeometry x="1448.5" y="4195.0599999999995" width="187.5" height="130" as="geometry" />
        </mxCell>
        <mxCell id="81" value="" style="rounded=1;whiteSpace=wrap;html=1;fillColor=#d5e8d4;strokeColor=#82b366;" parent="WIyWlLk6GJQsqaUBKTNV-1" vertex="1">
          <mxGeometry x="1720" y="4325.0599999999995" width="120" height="60" as="geometry" />
        </mxCell>
        <mxCell id="82" style="edgeStyle=orthogonalEdgeStyle;rounded=0;orthogonalLoop=1;jettySize=auto;html=1;exitX=0;exitY=0.5;exitDx=0;exitDy=0;entryX=0.5;entryY=0;entryDx=0;entryDy=0;" parent="WIyWlLk6GJQsqaUBKTNV-1" target="85" edge="1">
          <mxGeometry relative="1" as="geometry">
            <mxPoint x="1670" y="4445.0599999999995" as="targetPoint" />
            <mxPoint x="1786.249999999999" y="4385.0599999999995" as="sourcePoint" />
            <Array as="points">
              <mxPoint x="1784" y="4385" />
              <mxPoint x="1784" y="4425" />
              <mxPoint x="1784" y="4425" />
            </Array>
          </mxGeometry>
        </mxCell>
        <mxCell id="83" style="edgeStyle=orthogonalEdgeStyle;rounded=0;orthogonalLoop=1;jettySize=auto;html=1;exitX=1;exitY=0.5;exitDx=0;exitDy=0;entryX=0.572;entryY=-0.008;entryDx=0;entryDy=0;entryPerimeter=0;" parent="WIyWlLk6GJQsqaUBKTNV-1" target="81" edge="1">
          <mxGeometry relative="1" as="geometry">
            <mxPoint x="1814.7499999999995" y="4355.0599999999995" as="targetPoint" />
            <mxPoint x="1630" y="4265.25" as="sourcePoint" />
            <Array as="points">
              <mxPoint x="1630" y="4260" />
              <mxPoint x="1789" y="4260" />
              <mxPoint x="1789" y="4325" />
            </Array>
          </mxGeometry>
        </mxCell>
        <mxCell id="84" value="sim" style="edgeLabel;html=1;align=center;verticalAlign=middle;resizable=0;points=[];" parent="83" vertex="1" connectable="0">
          <mxGeometry x="-0.3826" y="1" relative="1" as="geometry">
            <mxPoint as="offset" />
          </mxGeometry>
        </mxCell>
        <mxCell id="85" value="É necessário um cooler, tem preferência(WaterCooling, normal, Fanless)?" style="rhombus;whiteSpace=wrap;html=1;fillColor=#ffe6cc;strokeColor=#d79b00;" parent="WIyWlLk6GJQsqaUBKTNV-1" vertex="1">
          <mxGeometry x="1690" y="4460" width="187.5" height="130" as="geometry" />
        </mxCell>
        <mxCell id="88" style="edgeStyle=orthogonalEdgeStyle;rounded=0;orthogonalLoop=1;jettySize=auto;html=1;exitX=1.003;exitY=0.5;exitDx=0;exitDy=0;exitPerimeter=0;" parent="WIyWlLk6GJQsqaUBKTNV-1" source="85" edge="1">
          <mxGeometry relative="1" as="geometry">
            <mxPoint x="1990" y="4760" as="targetPoint" />
            <mxPoint x="1873.9999999999995" y="4520.0599999999995" as="sourcePoint" />
            <Array as="points">
              <mxPoint x="1990" y="4525" />
              <mxPoint x="1990" y="4685" />
            </Array>
          </mxGeometry>
        </mxCell>
        <mxCell id="89" value="Fanless" style="edgeLabel;html=1;align=center;verticalAlign=middle;resizable=0;points=[];" parent="88" vertex="1" connectable="0">
          <mxGeometry x="-0.3826" y="1" relative="1" as="geometry">
            <mxPoint x="-1" y="29" as="offset" />
          </mxGeometry>
        </mxCell>
        <mxCell id="90" style="edgeStyle=orthogonalEdgeStyle;rounded=0;orthogonalLoop=1;jettySize=auto;html=1;" parent="WIyWlLk6GJQsqaUBKTNV-1" edge="1">
          <mxGeometry relative="1" as="geometry">
            <mxPoint x="1860" y="4760" as="targetPoint" />
            <mxPoint x="1827" y="4560" as="sourcePoint" />
            <Array as="points">
              <mxPoint x="1860" y="4560" />
              <mxPoint x="1860" y="4760" />
            </Array>
          </mxGeometry>
        </mxCell>
        <mxCell id="91" value="Normal" style="edgeLabel;html=1;align=center;verticalAlign=middle;resizable=0;points=[];" parent="90" vertex="1" connectable="0">
          <mxGeometry x="-0.3826" y="1" relative="1" as="geometry">
            <mxPoint x="-1" y="29" as="offset" />
          </mxGeometry>
        </mxCell>
        <mxCell id="92" style="edgeStyle=orthogonalEdgeStyle;rounded=0;orthogonalLoop=1;jettySize=auto;html=1;exitX=1;exitY=1;exitDx=0;exitDy=0;" parent="WIyWlLk6GJQsqaUBKTNV-1" target="96" edge="1">
          <mxGeometry relative="1" as="geometry">
            <mxPoint x="1730" y="4753" as="targetPoint" />
            <mxPoint x="1740.625" y="4560" as="sourcePoint" />
            <Array as="points">
              <mxPoint x="1710" y="4560" />
            </Array>
          </mxGeometry>
        </mxCell>
        <mxCell id="93" value="WaterCooling" style="edgeLabel;html=1;align=center;verticalAlign=middle;resizable=0;points=[];" parent="92" vertex="1" connectable="0">
          <mxGeometry x="-0.3826" y="1" relative="1" as="geometry">
            <mxPoint x="-1" y="29" as="offset" />
          </mxGeometry>
        </mxCell>
        <mxCell id="94" style="edgeStyle=orthogonalEdgeStyle;rounded=0;orthogonalLoop=1;jettySize=auto;html=1;exitX=-0.012;exitY=0.509;exitDx=0;exitDy=0;exitPerimeter=0;entryX=0.5;entryY=0;entryDx=0;entryDy=0;" parent="WIyWlLk6GJQsqaUBKTNV-1" source="85" edge="1" target="107">
          <mxGeometry relative="1" as="geometry">
            <mxPoint x="1230" y="4920" as="targetPoint" />
            <mxPoint x="1647.505" y="4530" as="sourcePoint" />
            <Array as="points">
              <mxPoint x="1590" y="4526" />
              <mxPoint x="1590" y="4850" />
              <mxPoint x="1234" y="4850" />
              <mxPoint x="1234" y="4920" />
            </Array>
          </mxGeometry>
        </mxCell>
        <mxCell id="95" value="não" style="edgeLabel;html=1;align=center;verticalAlign=middle;resizable=0;points=[];" parent="94" vertex="1" connectable="0">
          <mxGeometry x="-0.3826" y="1" relative="1" as="geometry">
            <mxPoint x="-1" y="29" as="offset" />
          </mxGeometry>
        </mxCell>
        <mxCell id="96" value="" style="rounded=1;whiteSpace=wrap;html=1;fillColor=#d5e8d4;strokeColor=#82b366;" parent="WIyWlLk6GJQsqaUBKTNV-1" vertex="1">
          <mxGeometry x="1670" y="4760" width="90" height="60" as="geometry" />
        </mxCell>
        <mxCell id="98" value="" style="rounded=1;whiteSpace=wrap;html=1;fillColor=#d5e8d4;strokeColor=#82b366;" parent="WIyWlLk6GJQsqaUBKTNV-1" vertex="1">
          <mxGeometry x="1810" y="4760" width="90" height="60" as="geometry" />
        </mxCell>
        <mxCell id="99" value="" style="rounded=1;whiteSpace=wrap;html=1;fillColor=#d5e8d4;strokeColor=#82b366;" parent="WIyWlLk6GJQsqaUBKTNV-1" vertex="1">
          <mxGeometry x="1940" y="4760" width="90" height="60" as="geometry" />
        </mxCell>
        <mxCell id="100" style="edgeStyle=orthogonalEdgeStyle;rounded=0;orthogonalLoop=1;jettySize=auto;html=1;exitX=-0.012;exitY=0.509;exitDx=0;exitDy=0;exitPerimeter=0;entryX=0.5;entryY=0;entryDx=0;entryDy=0;" parent="WIyWlLk6GJQsqaUBKTNV-1" edge="1" target="107">
          <mxGeometry relative="1" as="geometry">
            <mxPoint x="1230" y="4920" as="targetPoint" />
            <mxPoint x="1447.75" y="4260.030000000001" as="sourcePoint" />
            <Array as="points">
              <mxPoint x="1350" y="4260" />
              <mxPoint x="1350" y="4850" />
              <mxPoint x="1234" y="4850" />
              <mxPoint x="1234" y="4920" />
            </Array>
          </mxGeometry>
        </mxCell>
        <mxCell id="101" value="não" style="edgeLabel;html=1;align=center;verticalAlign=middle;resizable=0;points=[];" parent="100" vertex="1" connectable="0">
          <mxGeometry x="-0.3826" y="1" relative="1" as="geometry">
            <mxPoint x="-1" y="29" as="offset" />
          </mxGeometry>
        </mxCell>
        <mxCell id="102" style="edgeStyle=orthogonalEdgeStyle;rounded=0;orthogonalLoop=1;jettySize=auto;html=1;exitX=0;exitY=0.5;exitDx=0;exitDy=0;entryX=0.5;entryY=0;entryDx=0;entryDy=0;" parent="WIyWlLk6GJQsqaUBKTNV-1" source="75" edge="1" target="107">
          <mxGeometry relative="1" as="geometry">
            <mxPoint x="1230" y="4920" as="targetPoint" />
            <mxPoint x="1170" y="4100.030000000001" as="sourcePoint" />
            <Array as="points">
              <mxPoint x="1072" y="4105" />
              <mxPoint x="1072" y="4850" />
              <mxPoint x="1234" y="4850" />
              <mxPoint x="1234" y="4920" />
            </Array>
          </mxGeometry>
        </mxCell>
        <mxCell id="103" value="não" style="edgeLabel;html=1;align=center;verticalAlign=middle;resizable=0;points=[];" parent="102" vertex="1" connectable="0">
          <mxGeometry x="-0.3826" y="1" relative="1" as="geometry">
            <mxPoint x="-1" y="29" as="offset" />
          </mxGeometry>
        </mxCell>
        <mxCell id="104" style="edgeStyle=orthogonalEdgeStyle;rounded=0;orthogonalLoop=1;jettySize=auto;html=1;exitX=0.5;exitY=1;exitDx=0;exitDy=0;entryX=0.5;entryY=0;entryDx=0;entryDy=0;" parent="WIyWlLk6GJQsqaUBKTNV-1" edge="1" target="107" source="96">
          <mxGeometry relative="1" as="geometry">
            <mxPoint x="1230" y="4920" as="targetPoint" />
            <mxPoint x="1706.249999999999" y="4810" as="sourcePoint" />
            <Array as="points">
              <mxPoint x="1715" y="4850" />
              <mxPoint x="1234" y="4850" />
              <mxPoint x="1234" y="4920" />
            </Array>
          </mxGeometry>
        </mxCell>
        <mxCell id="105" style="edgeStyle=orthogonalEdgeStyle;rounded=0;orthogonalLoop=1;jettySize=auto;html=1;exitX=0;exitY=0.5;exitDx=0;exitDy=0;entryX=0.5;entryY=0;entryDx=0;entryDy=0;" parent="WIyWlLk6GJQsqaUBKTNV-1" edge="1" target="107">
          <mxGeometry relative="1" as="geometry">
            <mxPoint x="1241" y="4920" as="targetPoint" />
            <mxPoint x="1856.7499999999986" y="4820" as="sourcePoint" />
            <Array as="points">
              <mxPoint x="1857" y="4850" />
              <mxPoint x="1234" y="4850" />
              <mxPoint x="1234" y="4920" />
            </Array>
          </mxGeometry>
        </mxCell>
        <mxCell id="106" style="edgeStyle=orthogonalEdgeStyle;rounded=0;orthogonalLoop=1;jettySize=auto;html=1;exitX=0;exitY=0.5;exitDx=0;exitDy=0;entryX=0.5;entryY=0;entryDx=0;entryDy=0;" parent="WIyWlLk6GJQsqaUBKTNV-1" edge="1" target="107">
          <mxGeometry relative="1" as="geometry">
            <mxPoint x="1230" y="4920" as="targetPoint" />
            <mxPoint x="1985.7499999999986" y="4820" as="sourcePoint" />
            <Array as="points">
              <mxPoint x="1986" y="4850" />
              <mxPoint x="1234" y="4850" />
            </Array>
          </mxGeometry>
        </mxCell>
        <mxCell id="107" value="Pretende uma caixa portátil, pequena ou muito pequena, ou normal?" style="rhombus;whiteSpace=wrap;html=1;fillColor=#ffe6cc;strokeColor=#d79b00;" parent="WIyWlLk6GJQsqaUBKTNV-1" vertex="1">
          <mxGeometry x="1140" y="4920" width="187.5" height="130" as="geometry" />
        </mxCell>
        <mxCell id="110" style="edgeStyle=orthogonalEdgeStyle;rounded=0;orthogonalLoop=1;jettySize=auto;html=1;exitX=0;exitY=0.5;exitDx=0;exitDy=0;entryX=0.5;entryY=0;entryDx=0;entryDy=0;" parent="WIyWlLk6GJQsqaUBKTNV-1" source="107" target="118" edge="1">
          <mxGeometry relative="1" as="geometry">
            <mxPoint x="1070" y="5121" as="targetPoint" />
            <mxPoint x="1139.9999999999995" y="4990" as="sourcePoint" />
            <Array as="points">
              <mxPoint x="1070" y="4985" />
            </Array>
          </mxGeometry>
        </mxCell>
        <mxCell id="111" value="muito pequena(micro_atx)" style="edgeLabel;html=1;align=center;verticalAlign=middle;resizable=0;points=[];" parent="110" vertex="1" connectable="0">
          <mxGeometry x="-0.1812" relative="1" as="geometry">
            <mxPoint y="45" as="offset" />
          </mxGeometry>
        </mxCell>
        <mxCell id="112" style="edgeStyle=orthogonalEdgeStyle;rounded=0;orthogonalLoop=1;jettySize=auto;html=1;entryX=0.5;entryY=0;entryDx=0;entryDy=0;" parent="WIyWlLk6GJQsqaUBKTNV-1" target="117" edge="1">
          <mxGeometry relative="1" as="geometry">
            <mxPoint x="1233.55" y="5126" as="targetPoint" />
            <mxPoint x="1234" y="5050" as="sourcePoint" />
            <Array as="points">
              <mxPoint x="1234" y="5110" />
            </Array>
          </mxGeometry>
        </mxCell>
        <mxCell id="113" value="pequena(mini_atx)" style="edgeLabel;html=1;align=center;verticalAlign=middle;resizable=0;points=[];" parent="112" vertex="1" connectable="0">
          <mxGeometry x="-0.1812" relative="1" as="geometry">
            <mxPoint y="-11" as="offset" />
          </mxGeometry>
        </mxCell>
        <mxCell id="114" style="edgeStyle=orthogonalEdgeStyle;rounded=0;orthogonalLoop=1;jettySize=auto;html=1;exitX=1;exitY=0.5;exitDx=0;exitDy=0;entryX=0.5;entryY=0;entryDx=0;entryDy=0;" parent="WIyWlLk6GJQsqaUBKTNV-1" source="107" target="116" edge="1">
          <mxGeometry relative="1" as="geometry">
            <mxPoint x="1400" y="5096" as="targetPoint" />
            <mxPoint x="1357.95" y="5020" as="sourcePoint" />
            <Array as="points">
              <mxPoint x="1401" y="4985" />
            </Array>
          </mxGeometry>
        </mxCell>
        <mxCell id="115" value="normal(atx)" style="edgeLabel;html=1;align=center;verticalAlign=middle;resizable=0;points=[];" parent="114" vertex="1" connectable="0">
          <mxGeometry x="-0.1812" relative="1" as="geometry">
            <mxPoint x="1" y="50" as="offset" />
          </mxGeometry>
        </mxCell>
        <mxCell id="116" value="" style="rounded=1;whiteSpace=wrap;html=1;fillColor=#d5e8d4;strokeColor=#82b366;" parent="WIyWlLk6GJQsqaUBKTNV-1" vertex="1">
          <mxGeometry x="1356" y="5120" width="90" height="60" as="geometry" />
        </mxCell>
        <mxCell id="117" value="" style="rounded=1;whiteSpace=wrap;html=1;fillColor=#d5e8d4;strokeColor=#82b366;" parent="WIyWlLk6GJQsqaUBKTNV-1" vertex="1">
          <mxGeometry x="1188.75" y="5120" width="90" height="60" as="geometry" />
        </mxCell>
        <mxCell id="118" value="" style="rounded=1;whiteSpace=wrap;html=1;fillColor=#d5e8d4;strokeColor=#82b366;" parent="WIyWlLk6GJQsqaUBKTNV-1" vertex="1">
          <mxGeometry x="1025" y="5120" width="90" height="60" as="geometry" />
        </mxCell>
        <mxCell id="119" value="O sistema sugeriu o disco ideal, pretende modificá-lo/adicionar um novo?" style="rhombus;whiteSpace=wrap;html=1;fillColor=#ffe6cc;strokeColor=#d79b00;" parent="WIyWlLk6GJQsqaUBKTNV-1" vertex="1">
          <mxGeometry x="1125" y="1710" width="220" height="160" as="geometry" />
        </mxCell>
        <mxCell id="120" style="edgeStyle=orthogonalEdgeStyle;rounded=0;orthogonalLoop=1;jettySize=auto;html=1;" parent="WIyWlLk6GJQsqaUBKTNV-1" target="9" edge="1">
          <mxGeometry relative="1" as="geometry">
            <mxPoint x="896" y="1945" as="targetPoint" />
            <mxPoint x="1125" y="1790" as="sourcePoint" />
            <Array as="points">
              <mxPoint x="920" y="1790" />
              <mxPoint x="920" y="2210" />
              <mxPoint x="1234" y="2210" />
            </Array>
          </mxGeometry>
        </mxCell>
        <mxCell id="121" value="não" style="edgeLabel;html=1;align=center;verticalAlign=middle;resizable=0;points=[];" parent="120" vertex="1" connectable="0">
          <mxGeometry x="0.2684" y="-1" relative="1" as="geometry">
            <mxPoint x="1" y="-153" as="offset" />
          </mxGeometry>
        </mxCell>
        <mxCell id="122" style="edgeStyle=orthogonalEdgeStyle;rounded=0;orthogonalLoop=1;jettySize=auto;html=1;entryX=0.5;entryY=0;entryDx=0;entryDy=0;" parent="WIyWlLk6GJQsqaUBKTNV-1" edge="1" target="124">
          <mxGeometry relative="1" as="geometry">
            <mxPoint x="1575" y="1900" as="targetPoint" />
            <mxPoint x="1344.998461538462" y="1790" as="sourcePoint" />
            <Array as="points">
              <mxPoint x="1578" y="1790" />
              <mxPoint x="1578" y="1900" />
            </Array>
          </mxGeometry>
        </mxCell>
        <mxCell id="123" value="modificar/adicionar um novo" style="edgeLabel;html=1;align=center;verticalAlign=middle;resizable=0;points=[];" parent="122" vertex="1" connectable="0">
          <mxGeometry x="-0.1812" relative="1" as="geometry">
            <mxPoint x="79" y="40" as="offset" />
          </mxGeometry>
        </mxCell>
        <mxCell id="124" value="Qual o tipo e o tamanho do disco que pretende?" style="rhombus;whiteSpace=wrap;html=1;fillColor=#ffe6cc;strokeColor=#d79b00;" parent="WIyWlLk6GJQsqaUBKTNV-1" vertex="1">
          <mxGeometry x="1467.5" y="1900" width="220" height="160" as="geometry" />
        </mxCell>
        <mxCell id="125" value="" style="rounded=1;whiteSpace=wrap;html=1;fillColor=#d5e8d4;strokeColor=#82b366;" parent="WIyWlLk6GJQsqaUBKTNV-1" vertex="1">
          <mxGeometry x="1517.5" y="2130" width="120" height="60" as="geometry" />
        </mxCell>
        <mxCell id="127" style="edgeStyle=orthogonalEdgeStyle;rounded=0;orthogonalLoop=1;jettySize=auto;html=1;" parent="WIyWlLk6GJQsqaUBKTNV-1" edge="1">
          <mxGeometry relative="1" as="geometry">
            <mxPoint x="1577" y="2130" as="targetPoint" />
            <mxPoint x="1577.26" y="2060" as="sourcePoint" />
            <Array as="points">
              <mxPoint x="1577" y="2095" />
            </Array>
          </mxGeometry>
        </mxCell>
        <mxCell id="128" style="edgeStyle=orthogonalEdgeStyle;rounded=0;orthogonalLoop=1;jettySize=auto;html=1;exitX=0.5;exitY=1;exitDx=0;exitDy=0;" parent="WIyWlLk6GJQsqaUBKTNV-1" target="9" edge="1" source="125">
          <mxGeometry relative="1" as="geometry">
            <mxPoint x="1577.26" y="2250" as="targetPoint" />
            <mxPoint x="1578" y="2200" as="sourcePoint" />
            <Array as="points">
              <mxPoint x="1578" y="2210" />
              <mxPoint x="1234" y="2210" />
            </Array>
          </mxGeometry>
        </mxCell>
        <mxCell id="129" style="edgeStyle=orthogonalEdgeStyle;rounded=0;orthogonalLoop=1;jettySize=auto;html=1;exitX=0.75;exitY=1;exitDx=0;exitDy=0;" parent="WIyWlLk6GJQsqaUBKTNV-1" source="118" edge="1">
          <mxGeometry relative="1" as="geometry">
            <mxPoint x="1220" y="5240" as="targetPoint" />
            <mxPoint x="1184.9999999999995" y="5180" as="sourcePoint" />
            <Array as="points">
              <mxPoint x="1060" y="5180" />
              <mxPoint x="1060" y="5220" />
              <mxPoint x="1220" y="5220" />
              <mxPoint x="1220" y="5240" />
            </Array>
          </mxGeometry>
        </mxCell>
        <mxCell id="130" style="edgeStyle=orthogonalEdgeStyle;rounded=0;orthogonalLoop=1;jettySize=auto;html=1;exitX=0;exitY=0.5;exitDx=0;exitDy=0;" parent="WIyWlLk6GJQsqaUBKTNV-1" edge="1">
          <mxGeometry relative="1" as="geometry">
            <mxPoint x="1220" y="5240" as="targetPoint" />
            <mxPoint x="1390" y="5180" as="sourcePoint" />
            <Array as="points">
              <mxPoint x="1390" y="5220" />
              <mxPoint x="1220" y="5220" />
              <mxPoint x="1220" y="5240" />
            </Array>
          </mxGeometry>
        </mxCell>
        <mxCell id="131" style="edgeStyle=orthogonalEdgeStyle;rounded=0;orthogonalLoop=1;jettySize=auto;html=1;entryX=0.5;entryY=0;entryDx=0;entryDy=0;" parent="WIyWlLk6GJQsqaUBKTNV-1" edge="1">
          <mxGeometry relative="1" as="geometry">
            <mxPoint x="1220" y="5240" as="targetPoint" />
            <mxPoint x="1220.25" y="5170" as="sourcePoint" />
            <Array as="points">
              <mxPoint x="1220.25" y="5230" />
            </Array>
          </mxGeometry>
        </mxCell>
        <mxCell id="133" value="Tem preferência na cor da caixa?&lt;br&gt;&amp;nbsp;(Preto / Branco)" style="rhombus;whiteSpace=wrap;html=1;fillColor=#ffe6cc;strokeColor=#d79b00;" parent="WIyWlLk6GJQsqaUBKTNV-1" vertex="1">
          <mxGeometry x="1127.5" y="5240" width="187.5" height="130" as="geometry" />
        </mxCell>
        <mxCell id="134" style="edgeStyle=orthogonalEdgeStyle;rounded=0;orthogonalLoop=1;jettySize=auto;html=1;exitX=0;exitY=0.5;exitDx=0;exitDy=0;" parent="WIyWlLk6GJQsqaUBKTNV-1" edge="1">
          <mxGeometry relative="1" as="geometry">
            <mxPoint x="1220" y="5559" as="targetPoint" />
            <mxPoint x="1127.5" y="5310" as="sourcePoint" />
            <Array as="points">
              <mxPoint x="1058" y="5310" />
              <mxPoint x="1058" y="5510" />
              <mxPoint x="1220" y="5510" />
              <mxPoint x="1220" y="5559" />
            </Array>
          </mxGeometry>
        </mxCell>
        <mxCell id="135" value="não" style="edgeLabel;html=1;align=center;verticalAlign=middle;resizable=0;points=[];" parent="134" vertex="1" connectable="0">
          <mxGeometry x="-0.1812" relative="1" as="geometry">
            <mxPoint x="2" y="-27" as="offset" />
          </mxGeometry>
        </mxCell>
        <mxCell id="136" style="edgeStyle=orthogonalEdgeStyle;rounded=0;orthogonalLoop=1;jettySize=auto;html=1;exitX=1;exitY=0.5;exitDx=0;exitDy=0;" parent="WIyWlLk6GJQsqaUBKTNV-1" source="133" edge="1">
          <mxGeometry relative="1" as="geometry">
            <mxPoint x="1370" y="5430" as="targetPoint" />
            <mxPoint x="1439.5" y="5320.000000000001" as="sourcePoint" />
            <Array as="points">
              <mxPoint x="1315" y="5310" />
              <mxPoint x="1370" y="5310" />
            </Array>
          </mxGeometry>
        </mxCell>
        <mxCell id="137" value="sim" style="edgeLabel;html=1;align=center;verticalAlign=middle;resizable=0;points=[];" parent="136" vertex="1" connectable="0">
          <mxGeometry x="-0.1812" relative="1" as="geometry">
            <mxPoint y="45" as="offset" />
          </mxGeometry>
        </mxCell>
        <mxCell id="138" value="" style="rounded=1;whiteSpace=wrap;html=1;fillColor=#d5e8d4;strokeColor=#82b366;" parent="WIyWlLk6GJQsqaUBKTNV-1" vertex="1">
          <mxGeometry x="1328.75" y="5430" width="90" height="60" as="geometry" />
        </mxCell>
        <mxCell id="139" value="O sistema procura o computador consoante todas as hipóteses obtidas" style="rounded=0;whiteSpace=wrap;html=1;" parent="WIyWlLk6GJQsqaUBKTNV-1" vertex="1">
          <mxGeometry x="1142.5" y="5560" width="175" height="80" as="geometry" />
        </mxCell>
        <mxCell id="140" style="edgeStyle=orthogonalEdgeStyle;rounded=0;orthogonalLoop=1;jettySize=auto;html=1;exitX=0.5;exitY=1;exitDx=0;exitDy=0;" parent="WIyWlLk6GJQsqaUBKTNV-1" source="138" target="139" edge="1">
          <mxGeometry relative="1" as="geometry">
            <mxPoint x="1357.5" y="5675.000000000001" as="targetPoint" />
            <mxPoint x="1360" y="5510" as="sourcePoint" />
            <Array as="points">
              <mxPoint x="1374" y="5510" />
              <mxPoint x="1220" y="5510" />
            </Array>
          </mxGeometry>
        </mxCell>
        <mxCell id="141" value="Que tipo de ficheiros utiliza?" style="rhombus;whiteSpace=wrap;html=1;" parent="WIyWlLk6GJQsqaUBKTNV-1" vertex="1">
          <mxGeometry x="-460" y="810" width="193.75" height="200" as="geometry" />
        </mxCell>
        <mxCell id="143" style="edgeStyle=orthogonalEdgeStyle;rounded=0;orthogonalLoop=1;jettySize=auto;html=1;" parent="WIyWlLk6GJQsqaUBKTNV-1" target="141" edge="1">
          <mxGeometry relative="1" as="geometry">
            <Array as="points">
              <mxPoint x="-190" y="910" />
            </Array>
            <mxPoint x="-190.25" y="730" as="sourcePoint" />
            <mxPoint x="-190" y="920" as="targetPoint" />
          </mxGeometry>
        </mxCell>
        <mxCell id="144" style="edgeStyle=orthogonalEdgeStyle;rounded=0;orthogonalLoop=1;jettySize=auto;html=1;entryX=0;entryY=0.5;entryDx=0;entryDy=0;" parent="WIyWlLk6GJQsqaUBKTNV-1" target="141" edge="1">
          <mxGeometry relative="1" as="geometry">
            <Array as="points">
              <mxPoint x="-484" y="910" />
            </Array>
            <mxPoint x="-483.94" y="735" as="sourcePoint" />
            <mxPoint x="-559.9969852941176" y="915.0588235294122" as="targetPoint" />
          </mxGeometry>
        </mxCell>
        <mxCell id="145" style="edgeStyle=orthogonalEdgeStyle;rounded=0;orthogonalLoop=1;jettySize=auto;html=1;entryX=0;entryY=0.5;entryDx=0;entryDy=0;" parent="WIyWlLk6GJQsqaUBKTNV-1" target="141" edge="1">
          <mxGeometry relative="1" as="geometry">
            <Array as="points">
              <mxPoint x="-1020" y="910" />
            </Array>
            <mxPoint x="-1020" y="735" as="sourcePoint" />
            <mxPoint x="-996.06" y="910" as="targetPoint" />
          </mxGeometry>
        </mxCell>
        <mxCell id="146" value="" style="rounded=1;whiteSpace=wrap;html=1;fillColor=#d5e8d4;strokeColor=#82b366;" parent="WIyWlLk6GJQsqaUBKTNV-1" vertex="1">
          <mxGeometry x="-563.12" y="1025" width="120" height="60" as="geometry" />
        </mxCell>
        <mxCell id="147" value="" style="rounded=1;whiteSpace=wrap;html=1;fillColor=#d5e8d4;strokeColor=#82b366;" parent="WIyWlLk6GJQsqaUBKTNV-1" vertex="1">
          <mxGeometry x="-283.12" y="1020" width="120" height="60" as="geometry" />
        </mxCell>
        <mxCell id="148" style="edgeStyle=orthogonalEdgeStyle;rounded=0;orthogonalLoop=1;jettySize=auto;html=1;entryX=0.5;entryY=0;entryDx=0;entryDy=0;" parent="WIyWlLk6GJQsqaUBKTNV-1" target="147" edge="1">
          <mxGeometry relative="1" as="geometry">
            <Array as="points">
              <mxPoint x="-223" y="971" />
            </Array>
            <mxPoint x="-325" y="971" as="sourcePoint" />
            <mxPoint x="-401.18" y="1205.0000000000005" as="targetPoint" />
          </mxGeometry>
        </mxCell>
        <mxCell id="151" value="Imagens" style="edgeLabel;html=1;align=center;verticalAlign=middle;resizable=0;points=[];" parent="148" vertex="1" connectable="0">
          <mxGeometry x="0.0471" y="4" relative="1" as="geometry">
            <mxPoint x="-4" y="-7" as="offset" />
          </mxGeometry>
        </mxCell>
        <mxCell id="149" style="edgeStyle=orthogonalEdgeStyle;rounded=0;orthogonalLoop=1;jettySize=auto;html=1;entryX=0.365;entryY=0.002;entryDx=0;entryDy=0;entryPerimeter=0;exitX=0.311;exitY=0.806;exitDx=0;exitDy=0;exitPerimeter=0;" parent="WIyWlLk6GJQsqaUBKTNV-1" source="141" target="146" edge="1">
          <mxGeometry relative="1" as="geometry">
            <Array as="points">
              <mxPoint x="-400" y="970" />
              <mxPoint x="-519" y="970" />
            </Array>
            <mxPoint x="-443" y="961" as="sourcePoint" />
            <mxPoint x="-443.1399999999999" y="1010" as="targetPoint" />
          </mxGeometry>
        </mxCell>
        <mxCell id="150" value="Word/Excel/Ppt" style="edgeLabel;html=1;align=center;verticalAlign=middle;resizable=0;points=[];" parent="149" vertex="1" connectable="0">
          <mxGeometry x="0.0175" y="-2" relative="1" as="geometry">
            <mxPoint x="-1" y="-8" as="offset" />
          </mxGeometry>
        </mxCell>
        <mxCell id="152" style="edgeStyle=orthogonalEdgeStyle;rounded=0;orthogonalLoop=1;jettySize=auto;html=1;entryX=0.5;entryY=0;entryDx=0;entryDy=0;exitX=0.4;exitY=1.038;exitDx=0;exitDy=0;exitPerimeter=0;" parent="WIyWlLk6GJQsqaUBKTNV-1" source="147" target="u-Qdk7PA7i_6lC7Le9-R-15" edge="1">
          <mxGeometry relative="1" as="geometry">
            <Array as="points">
              <mxPoint x="-235" y="1350" />
              <mxPoint x="1374" y="1350" />
            </Array>
            <mxPoint x="-231.88" y="1110" as="sourcePoint" />
            <mxPoint x="-130.00000000000034" y="1158.9999999999995" as="targetPoint" />
          </mxGeometry>
        </mxCell>
        <mxCell id="154" style="edgeStyle=orthogonalEdgeStyle;rounded=0;orthogonalLoop=1;jettySize=auto;html=1;entryX=0.5;entryY=0;entryDx=0;entryDy=0;exitX=0.4;exitY=1.038;exitDx=0;exitDy=0;exitPerimeter=0;" parent="WIyWlLk6GJQsqaUBKTNV-1" target="u-Qdk7PA7i_6lC7Le9-R-15" edge="1">
          <mxGeometry relative="1" as="geometry">
            <Array as="points">
              <mxPoint x="-501" y="1350" />
              <mxPoint x="1374" y="1350" />
            </Array>
            <mxPoint x="-501.37000000000035" y="1084.9999999999998" as="sourcePoint" />
            <mxPoint x="-112.49999999999999" y="1122.7199999999996" as="targetPoint" />
          </mxGeometry>
        </mxCell>
        <mxCell id="6vRDBdTw8ivvEX-BXhWZ-157" style="edgeStyle=orthogonalEdgeStyle;rounded=0;orthogonalLoop=1;jettySize=auto;html=1;entryX=0.5;entryY=0;entryDx=0;entryDy=0;" edge="1" parent="WIyWlLk6GJQsqaUBKTNV-1" source="6vRDBdTw8ivvEX-BXhWZ-154" target="6vRDBdTw8ivvEX-BXhWZ-156">
          <mxGeometry relative="1" as="geometry" />
        </mxCell>
        <mxCell id="6vRDBdTw8ivvEX-BXhWZ-160" value="local" style="edgeLabel;html=1;align=center;verticalAlign=middle;resizable=0;points=[];" vertex="1" connectable="0" parent="6vRDBdTw8ivvEX-BXhWZ-157">
          <mxGeometry x="0.172" y="4" relative="1" as="geometry">
            <mxPoint x="-17" y="-14" as="offset" />
          </mxGeometry>
        </mxCell>
        <mxCell id="6vRDBdTw8ivvEX-BXhWZ-159" style="edgeStyle=orthogonalEdgeStyle;rounded=0;orthogonalLoop=1;jettySize=auto;html=1;" edge="1" parent="WIyWlLk6GJQsqaUBKTNV-1" source="6vRDBdTw8ivvEX-BXhWZ-154" target="6vRDBdTw8ivvEX-BXhWZ-158">
          <mxGeometry relative="1" as="geometry" />
        </mxCell>
        <mxCell id="6vRDBdTw8ivvEX-BXhWZ-161" value="remota" style="edgeLabel;html=1;align=center;verticalAlign=middle;resizable=0;points=[];" vertex="1" connectable="0" parent="6vRDBdTw8ivvEX-BXhWZ-159">
          <mxGeometry x="0.1073" y="-2" relative="1" as="geometry">
            <mxPoint x="1" y="-12" as="offset" />
          </mxGeometry>
        </mxCell>
        <mxCell id="6vRDBdTw8ivvEX-BXhWZ-154" value="Trabalha com base de dados local ou remota?" style="rhombus;whiteSpace=wrap;html=1;fillColor=#ffe6cc;strokeColor=#d79b00;" vertex="1" parent="WIyWlLk6GJQsqaUBKTNV-1">
          <mxGeometry x="1554.85" y="639.89" width="260" height="220" as="geometry" />
        </mxCell>
        <mxCell id="6vRDBdTw8ivvEX-BXhWZ-156" value="" style="rounded=1;whiteSpace=wrap;html=1;fillColor=#d5e8d4;strokeColor=#82b366;" vertex="1" parent="WIyWlLk6GJQsqaUBKTNV-1">
          <mxGeometry x="1462.85" y="1019.89" width="120" height="60" as="geometry" />
        </mxCell>
        <mxCell id="6vRDBdTw8ivvEX-BXhWZ-162" style="edgeStyle=orthogonalEdgeStyle;rounded=0;orthogonalLoop=1;jettySize=auto;html=1;entryX=0.5;entryY=0;entryDx=0;entryDy=0;exitX=0.5;exitY=1;exitDx=0;exitDy=0;" edge="1" parent="WIyWlLk6GJQsqaUBKTNV-1" source="6vRDBdTw8ivvEX-BXhWZ-158" target="u-Qdk7PA7i_6lC7Le9-R-18">
          <mxGeometry relative="1" as="geometry">
            <Array as="points">
              <mxPoint x="1870" y="1080" />
              <mxPoint x="1870" y="1170" />
              <mxPoint x="1690" y="1170" />
            </Array>
          </mxGeometry>
        </mxCell>
        <mxCell id="6vRDBdTw8ivvEX-BXhWZ-158" value="" style="rounded=1;whiteSpace=wrap;html=1;fillColor=#d5e8d4;strokeColor=#82b366;" vertex="1" parent="WIyWlLk6GJQsqaUBKTNV-1">
          <mxGeometry x="1814.85" y="1019.89" width="120" height="60" as="geometry" />
        </mxCell>
        <mxCell id="6vRDBdTw8ivvEX-BXhWZ-172" style="edgeStyle=orthogonalEdgeStyle;rounded=0;orthogonalLoop=1;jettySize=auto;html=1;entryX=0.5;entryY=0;entryDx=0;entryDy=0;" edge="1" parent="WIyWlLk6GJQsqaUBKTNV-1" source="6vRDBdTw8ivvEX-BXhWZ-163" target="u-Qdk7PA7i_6lC7Le9-R-18">
          <mxGeometry relative="1" as="geometry">
            <Array as="points">
              <mxPoint x="2060" y="264" />
              <mxPoint x="2060" y="1460" />
              <mxPoint x="1690" y="1460" />
            </Array>
          </mxGeometry>
        </mxCell>
        <mxCell id="6vRDBdTw8ivvEX-BXhWZ-163" value="&lt;span style=&quot;font-size: 11px; background-color: rgb(255, 255, 255);&quot;&gt;Jogos Básicos&lt;/span&gt;" style="rounded=1;whiteSpace=wrap;html=1;" vertex="1" parent="WIyWlLk6GJQsqaUBKTNV-1">
          <mxGeometry x="2000" y="240" width="120" height="60" as="geometry" />
        </mxCell>
        <mxCell id="6vRDBdTw8ivvEX-BXhWZ-176" style="edgeStyle=orthogonalEdgeStyle;rounded=0;orthogonalLoop=1;jettySize=auto;html=1;entryX=0.5;entryY=0;entryDx=0;entryDy=0;" edge="1" parent="WIyWlLk6GJQsqaUBKTNV-1" source="6vRDBdTw8ivvEX-BXhWZ-165" target="u-Qdk7PA7i_6lC7Le9-R-18">
          <mxGeometry relative="1" as="geometry">
            <mxPoint x="1690" y="1600" as="targetPoint" />
            <Array as="points">
              <mxPoint x="2370" y="1460" />
              <mxPoint x="1690" y="1460" />
            </Array>
          </mxGeometry>
        </mxCell>
        <mxCell id="6vRDBdTw8ivvEX-BXhWZ-165" value="&lt;span style=&quot;font-size: 11px; background-color: rgb(255, 255, 255);&quot;&gt;Gaming&lt;/span&gt;" style="rounded=1;whiteSpace=wrap;html=1;" vertex="1" parent="WIyWlLk6GJQsqaUBKTNV-1">
          <mxGeometry x="2310" y="240" width="120" height="60" as="geometry" />
        </mxCell>
        <mxCell id="6vRDBdTw8ivvEX-BXhWZ-177" style="edgeStyle=orthogonalEdgeStyle;rounded=0;orthogonalLoop=1;jettySize=auto;html=1;entryX=0.5;entryY=0;entryDx=0;entryDy=0;" edge="1" parent="WIyWlLk6GJQsqaUBKTNV-1" source="6vRDBdTw8ivvEX-BXhWZ-166" target="u-Qdk7PA7i_6lC7Le9-R-18">
          <mxGeometry relative="1" as="geometry">
            <Array as="points">
              <mxPoint x="2670" y="1460" />
              <mxPoint x="1690" y="1460" />
            </Array>
          </mxGeometry>
        </mxCell>
        <mxCell id="6vRDBdTw8ivvEX-BXhWZ-166" value="&lt;span style=&quot;font-size: 11px; background-color: rgb(255, 255, 255);&quot;&gt;Programas de modelação 3D&lt;/span&gt;" style="rounded=1;whiteSpace=wrap;html=1;" vertex="1" parent="WIyWlLk6GJQsqaUBKTNV-1">
          <mxGeometry x="2610" y="240" width="120" height="60" as="geometry" />
        </mxCell>
        <mxCell id="6vRDBdTw8ivvEX-BXhWZ-178" style="edgeStyle=orthogonalEdgeStyle;rounded=0;orthogonalLoop=1;jettySize=auto;html=1;entryX=0.5;entryY=0;entryDx=0;entryDy=0;" edge="1" parent="WIyWlLk6GJQsqaUBKTNV-1" source="6vRDBdTw8ivvEX-BXhWZ-167" target="u-Qdk7PA7i_6lC7Le9-R-18">
          <mxGeometry relative="1" as="geometry">
            <Array as="points">
              <mxPoint x="3130" y="1460" />
              <mxPoint x="1690" y="1460" />
            </Array>
          </mxGeometry>
        </mxCell>
        <mxCell id="6vRDBdTw8ivvEX-BXhWZ-167" value="&lt;span style=&quot;font-size: 11px; background-color: rgb(255, 255, 255);&quot;&gt;Programas de cálculo matemático&lt;/span&gt;" style="rounded=1;whiteSpace=wrap;html=1;" vertex="1" parent="WIyWlLk6GJQsqaUBKTNV-1">
          <mxGeometry x="3070" y="240" width="120" height="60" as="geometry" />
        </mxCell>
        <mxCell id="6vRDBdTw8ivvEX-BXhWZ-180" style="edgeStyle=orthogonalEdgeStyle;rounded=0;orthogonalLoop=1;jettySize=auto;html=1;exitX=0.5;exitY=1;exitDx=0;exitDy=0;entryX=0.5;entryY=0;entryDx=0;entryDy=0;" edge="1" parent="WIyWlLk6GJQsqaUBKTNV-1" source="6vRDBdTw8ivvEX-BXhWZ-168" target="u-Qdk7PA7i_6lC7Le9-R-18">
          <mxGeometry relative="1" as="geometry">
            <Array as="points">
              <mxPoint x="3390" y="1460" />
              <mxPoint x="1690" y="1460" />
            </Array>
          </mxGeometry>
        </mxCell>
        <mxCell id="6vRDBdTw8ivvEX-BXhWZ-168" value="&lt;span style=&quot;font-size: 11px; background-color: rgb(255, 255, 255);&quot;&gt;Tratamanento de imagem (básico)&lt;/span&gt;" style="rounded=1;whiteSpace=wrap;html=1;" vertex="1" parent="WIyWlLk6GJQsqaUBKTNV-1">
          <mxGeometry x="3330" y="240" width="120" height="60" as="geometry" />
        </mxCell>
        <mxCell id="6vRDBdTw8ivvEX-BXhWZ-182" style="edgeStyle=orthogonalEdgeStyle;rounded=0;orthogonalLoop=1;jettySize=auto;html=1;exitX=0.5;exitY=1;exitDx=0;exitDy=0;entryX=0.5;entryY=0;entryDx=0;entryDy=0;" edge="1" parent="WIyWlLk6GJQsqaUBKTNV-1" source="6vRDBdTw8ivvEX-BXhWZ-169" target="u-Qdk7PA7i_6lC7Le9-R-18">
          <mxGeometry relative="1" as="geometry">
            <Array as="points">
              <mxPoint x="3670" y="1460" />
              <mxPoint x="1690" y="1460" />
            </Array>
          </mxGeometry>
        </mxCell>
        <mxCell id="6vRDBdTw8ivvEX-BXhWZ-169" value="&lt;span style=&quot;font-size: 11px; background-color: rgb(255, 255, 255);&quot;&gt;Edição de Video 4k e 8K&lt;/span&gt;" style="rounded=1;whiteSpace=wrap;html=1;" vertex="1" parent="WIyWlLk6GJQsqaUBKTNV-1">
          <mxGeometry x="3610" y="240" width="120" height="60" as="geometry" />
        </mxCell>
        <mxCell id="6vRDBdTw8ivvEX-BXhWZ-189" style="edgeStyle=orthogonalEdgeStyle;rounded=0;orthogonalLoop=1;jettySize=auto;html=1;entryX=0.5;entryY=0;entryDx=0;entryDy=0;" edge="1" parent="WIyWlLk6GJQsqaUBKTNV-1" source="6vRDBdTw8ivvEX-BXhWZ-183" target="15">
          <mxGeometry relative="1" as="geometry">
            <Array as="points">
              <mxPoint x="1900" y="2690" />
              <mxPoint x="1272" y="2690" />
            </Array>
          </mxGeometry>
        </mxCell>
        <mxCell id="6vRDBdTw8ivvEX-BXhWZ-183" value="Hipotese/Facto" style="rounded=1;whiteSpace=wrap;html=1;fillColor=#d5e8d4;strokeColor=#82b366;" vertex="1" parent="WIyWlLk6GJQsqaUBKTNV-1">
          <mxGeometry x="1840" y="2569" width="120" height="60" as="geometry" />
        </mxCell>
        <mxCell id="6vRDBdTw8ivvEX-BXhWZ-190" style="edgeStyle=orthogonalEdgeStyle;rounded=0;orthogonalLoop=1;jettySize=auto;html=1;entryX=0.5;entryY=0;entryDx=0;entryDy=0;" edge="1" parent="WIyWlLk6GJQsqaUBKTNV-1" source="6vRDBdTw8ivvEX-BXhWZ-186" target="15">
          <mxGeometry relative="1" as="geometry">
            <Array as="points">
              <mxPoint x="2120" y="2690" />
              <mxPoint x="1272" y="2690" />
            </Array>
          </mxGeometry>
        </mxCell>
        <mxCell id="6vRDBdTw8ivvEX-BXhWZ-186" value="Hipotese/Facto" style="rounded=1;whiteSpace=wrap;html=1;fillColor=#d5e8d4;strokeColor=#82b366;" vertex="1" parent="WIyWlLk6GJQsqaUBKTNV-1">
          <mxGeometry x="2060" y="2569" width="120" height="60" as="geometry" />
        </mxCell>
        <mxCell id="6vRDBdTw8ivvEX-BXhWZ-193" value="" style="whiteSpace=wrap;html=1;fillColor=#d5e8d4;strokeColor=#82b366;" vertex="1" parent="WIyWlLk6GJQsqaUBKTNV-1">
          <mxGeometry x="-720" y="-370" width="120" height="60" as="geometry" />
        </mxCell>
        <mxCell id="6vRDBdTw8ivvEX-BXhWZ-195" value="&lt;font style=&quot;font-size: 18px;&quot;&gt;Hipoteses/Factos&lt;/font&gt;" style="text;html=1;align=center;verticalAlign=middle;resizable=0;points=[];autosize=1;strokeColor=none;fillColor=none;fontSize=12;" vertex="1" parent="WIyWlLk6GJQsqaUBKTNV-1">
          <mxGeometry x="-560" y="-360" width="160" height="40" as="geometry" />
        </mxCell>
        <mxCell id="6vRDBdTw8ivvEX-BXhWZ-196" value="" style="whiteSpace=wrap;html=1;fontSize=18;fillColor=#ffe6cc;strokeColor=#d79b00;" vertex="1" parent="WIyWlLk6GJQsqaUBKTNV-1">
          <mxGeometry x="-720" y="-290" width="120" height="60" as="geometry" />
        </mxCell>
        <mxCell id="6vRDBdTw8ivvEX-BXhWZ-197" value="&lt;font style=&quot;font-size: 18px;&quot;&gt;Perguntas realizadas ao cliente&lt;/font&gt;" style="text;html=1;align=center;verticalAlign=middle;resizable=0;points=[];autosize=1;strokeColor=none;fillColor=none;fontSize=12;" vertex="1" parent="WIyWlLk6GJQsqaUBKTNV-1">
          <mxGeometry x="-560" y="-280" width="270" height="40" as="geometry" />
        </mxCell>
        <mxCell id="6vRDBdTw8ivvEX-BXhWZ-198" value="" style="whiteSpace=wrap;html=1;fontSize=18;fillColor=#f5f5f5;fontColor=#333333;strokeColor=#666666;" vertex="1" parent="WIyWlLk6GJQsqaUBKTNV-1">
          <mxGeometry x="-720" y="-210" width="120" height="60" as="geometry" />
        </mxCell>
        <mxCell id="6vRDBdTw8ivvEX-BXhWZ-199" value="&lt;span style=&quot;font-size: 18px;&quot;&gt;Perguntas internas do sistema&lt;/span&gt;" style="text;html=1;align=center;verticalAlign=middle;resizable=0;points=[];autosize=1;strokeColor=none;fillColor=none;fontSize=12;" vertex="1" parent="WIyWlLk6GJQsqaUBKTNV-1">
          <mxGeometry x="-560" y="-200" width="270" height="40" as="geometry" />
        </mxCell>
        <mxCell id="6vRDBdTw8ivvEX-BXhWZ-202" style="edgeStyle=orthogonalEdgeStyle;rounded=0;orthogonalLoop=1;jettySize=auto;html=1;entryX=0.5;entryY=0;entryDx=0;entryDy=0;fontSize=18;" edge="1" parent="WIyWlLk6GJQsqaUBKTNV-1" source="6vRDBdTw8ivvEX-BXhWZ-200" target="u-Qdk7PA7i_6lC7Le9-R-18">
          <mxGeometry relative="1" as="geometry">
            <Array as="points">
              <mxPoint x="2895" y="1460" />
              <mxPoint x="1690" y="1460" />
            </Array>
          </mxGeometry>
        </mxCell>
        <mxCell id="6vRDBdTw8ivvEX-BXhWZ-200" value="&lt;span style=&quot;font-size: 11px; background-color: rgb(255, 255, 255);&quot;&gt;Programas de design gráfico&lt;/span&gt;" style="rounded=1;whiteSpace=wrap;html=1;" vertex="1" parent="WIyWlLk6GJQsqaUBKTNV-1">
          <mxGeometry x="2835" y="240" width="120" height="60" as="geometry" />
        </mxCell>
        <mxCell id="6vRDBdTw8ivvEX-BXhWZ-201" style="edgeStyle=orthogonalEdgeStyle;rounded=0;orthogonalLoop=1;jettySize=auto;html=1;entryX=0.5;entryY=0;entryDx=0;entryDy=0;" edge="1" parent="WIyWlLk6GJQsqaUBKTNV-1" target="6vRDBdTw8ivvEX-BXhWZ-200">
          <mxGeometry relative="1" as="geometry">
            <mxPoint x="1765" y="90" as="sourcePoint" />
            <mxPoint x="3080" y="244" as="targetPoint" />
            <Array as="points">
              <mxPoint x="1765" y="80" />
              <mxPoint x="2895" y="80" />
            </Array>
          </mxGeometry>
        </mxCell>
      </root>
    </mxGraphModel>
  </diagram>
  <diagram id="CCJLL5qfft05RX1misdZ" name="NavegaçãoWeb">
    <mxGraphModel dx="1422" dy="754" grid="1" gridSize="10" guides="1" tooltips="1" connect="1" arrows="1" fold="1" page="1" pageScale="1" pageWidth="850" pageHeight="1100" math="0" shadow="0">
      <root>
        <mxCell id="0" />
        <mxCell id="1" parent="0" />
        <mxCell id="iLQ7iv9MgPIPTVxWpYls-6" style="edgeStyle=orthogonalEdgeStyle;rounded=0;orthogonalLoop=1;jettySize=auto;html=1;" edge="1" parent="1" source="iLQ7iv9MgPIPTVxWpYls-1" target="iLQ7iv9MgPIPTVxWpYls-3">
          <mxGeometry relative="1" as="geometry" />
        </mxCell>
        <mxCell id="iLQ7iv9MgPIPTVxWpYls-1" value="Navegação web" style="rounded=1;whiteSpace=wrap;html=1;" vertex="1" parent="1">
          <mxGeometry x="338.75" y="60" width="120" height="60" as="geometry" />
        </mxCell>
        <mxCell id="iLQ7iv9MgPIPTVxWpYls-7" style="edgeStyle=orthogonalEdgeStyle;rounded=0;orthogonalLoop=1;jettySize=auto;html=1;" edge="1" parent="1" source="iLQ7iv9MgPIPTVxWpYls-3">
          <mxGeometry relative="1" as="geometry">
            <mxPoint x="130" y="430" as="targetPoint" />
          </mxGeometry>
        </mxCell>
        <mxCell id="iLQ7iv9MgPIPTVxWpYls-8" value="simples= poucas janelas" style="edgeLabel;html=1;align=center;verticalAlign=middle;resizable=0;points=[];" vertex="1" connectable="0" parent="iLQ7iv9MgPIPTVxWpYls-7">
          <mxGeometry x="0.2034" y="-2" relative="1" as="geometry">
            <mxPoint as="offset" />
          </mxGeometry>
        </mxCell>
        <mxCell id="iLQ7iv9MgPIPTVxWpYls-9" style="edgeStyle=orthogonalEdgeStyle;rounded=0;orthogonalLoop=1;jettySize=auto;html=1;" edge="1" parent="1" source="iLQ7iv9MgPIPTVxWpYls-3">
          <mxGeometry relative="1" as="geometry">
            <mxPoint x="670" y="430" as="targetPoint" />
          </mxGeometry>
        </mxCell>
        <mxCell id="iLQ7iv9MgPIPTVxWpYls-10" value="complexo=múltiplas janelas" style="edgeLabel;html=1;align=center;verticalAlign=middle;resizable=0;points=[];" vertex="1" connectable="0" parent="iLQ7iv9MgPIPTVxWpYls-9">
          <mxGeometry x="-0.1264" y="-1" relative="1" as="geometry">
            <mxPoint x="60" y="34" as="offset" />
          </mxGeometry>
        </mxCell>
        <mxCell id="iLQ7iv9MgPIPTVxWpYls-3" value="Que tipo de utilização pretende dar ao computador?" style="rhombus;whiteSpace=wrap;html=1;" vertex="1" parent="1">
          <mxGeometry x="305" y="210" width="187.5" height="130" as="geometry" />
        </mxCell>
        <mxCell id="iLQ7iv9MgPIPTVxWpYls-13" style="edgeStyle=orthogonalEdgeStyle;rounded=0;orthogonalLoop=1;jettySize=auto;html=1;" edge="1" parent="1" source="iLQ7iv9MgPIPTVxWpYls-11">
          <mxGeometry relative="1" as="geometry">
            <mxPoint x="400" y="640" as="targetPoint" />
          </mxGeometry>
        </mxCell>
        <mxCell id="iLQ7iv9MgPIPTVxWpYls-11" value="" style="rounded=1;whiteSpace=wrap;html=1;fillColor=#f5f5f5;strokeColor=#666666;fontColor=#333333;" vertex="1" parent="1">
          <mxGeometry x="90" y="430" width="120" height="60" as="geometry" />
        </mxCell>
        <mxCell id="iLQ7iv9MgPIPTVxWpYls-14" style="edgeStyle=orthogonalEdgeStyle;rounded=0;orthogonalLoop=1;jettySize=auto;html=1;" edge="1" parent="1" source="iLQ7iv9MgPIPTVxWpYls-12">
          <mxGeometry relative="1" as="geometry">
            <mxPoint x="400" y="640" as="targetPoint" />
          </mxGeometry>
        </mxCell>
        <mxCell id="iLQ7iv9MgPIPTVxWpYls-12" value="" style="rounded=1;whiteSpace=wrap;html=1;fillColor=#f5f5f5;fontColor=#333333;strokeColor=#666666;" vertex="1" parent="1">
          <mxGeometry x="620" y="430" width="120" height="60" as="geometry" />
        </mxCell>
        <mxCell id="iLQ7iv9MgPIPTVxWpYls-16" style="edgeStyle=orthogonalEdgeStyle;rounded=0;orthogonalLoop=1;jettySize=auto;html=1;" edge="1" parent="1" source="iLQ7iv9MgPIPTVxWpYls-15">
          <mxGeometry relative="1" as="geometry">
            <mxPoint x="80" y="860" as="targetPoint" />
          </mxGeometry>
        </mxCell>
        <mxCell id="iLQ7iv9MgPIPTVxWpYls-17" value="baixo (2 a 4h)" style="edgeLabel;html=1;align=center;verticalAlign=middle;resizable=0;points=[];" vertex="1" connectable="0" parent="iLQ7iv9MgPIPTVxWpYls-16">
          <mxGeometry x="0.2684" y="-1" relative="1" as="geometry">
            <mxPoint as="offset" />
          </mxGeometry>
        </mxCell>
        <mxCell id="iLQ7iv9MgPIPTVxWpYls-18" style="edgeStyle=orthogonalEdgeStyle;rounded=0;orthogonalLoop=1;jettySize=auto;html=1;" edge="1" parent="1" source="iLQ7iv9MgPIPTVxWpYls-15">
          <mxGeometry relative="1" as="geometry">
            <mxPoint x="720" y="850" as="targetPoint" />
          </mxGeometry>
        </mxCell>
        <mxCell id="iLQ7iv9MgPIPTVxWpYls-19" value="normal" style="edgeLabel;html=1;align=center;verticalAlign=middle;resizable=0;points=[];" vertex="1" connectable="0" parent="iLQ7iv9MgPIPTVxWpYls-18">
          <mxGeometry x="-0.1812" relative="1" as="geometry">
            <mxPoint x="65" y="15" as="offset" />
          </mxGeometry>
        </mxCell>
        <mxCell id="iLQ7iv9MgPIPTVxWpYls-15" value="Qual o tempo de duração?" style="rhombus;whiteSpace=wrap;html=1;" vertex="1" parent="1">
          <mxGeometry x="305" y="640" width="187.5" height="130" as="geometry" />
        </mxCell>
      </root>
    </mxGraphModel>
  </diagram>
  <diagram id="nMAHNqb7vd6cS9fobnT8" name="Page-3">
    <mxGraphModel dx="870" dy="735" grid="1" gridSize="10" guides="1" tooltips="1" connect="1" arrows="1" fold="1" page="1" pageScale="1" pageWidth="850" pageHeight="1100" math="0" shadow="0">
      <root>
        <mxCell id="38PDiTCkxLS8VLw9wBdp-0" />
        <mxCell id="38PDiTCkxLS8VLw9wBdp-1" parent="38PDiTCkxLS8VLw9wBdp-0" />
      </root>
    </mxGraphModel>
  </diagram>
</mxfile>
